<?xml version="1.0" encoding="UTF-8"?>
<svg width="39px" height="39px" viewBox="0 0 39 39" version="1.1" xmlns="http://www.w3.org/2000/svg" xmlns:xlink="http://www.w3.org/1999/xlink">
    <title>C03B1ED2-D63C-4B47-9C6C-C5DFFEA5B586</title>
    <g id="--Icons" stroke="none" stroke-width="1" fill="none" fill-rule="evenodd">
        <g id="Icons" transform="translate(-183.000000, -2584.000000)" fill="#4B0242" fill-rule="nonzero">
            <path d="M202.374954,2622.74991 C213.078053,2622.74991 221.749908,2614.07805 221.749908,2603.37495 C221.749908,2592.67185 213.078053,2584 202.374954,2584 C191.671854,2584 183,2592.67185 183,2603.37495 C183,2614.07805 191.671854,2622.74991 202.374954,2622.74991 Z M202.374954,2618.99992 C193.757802,2618.99992 186.749991,2611.99211 186.749991,2603.37495 C186.749991,2594.7578 193.757802,2587.74999 202.374954,2587.74999 C210.992106,2587.74999 217.999917,2594.7578 217.999917,2603.37495 C217.999917,2611.99211 210.992106,2618.99992 202.374954,2618.99992 Z M193.484365,2604.17962 L199.73435,2600.42963 C200.015569,2600.25774 200.187459,2599.9531 200.187459,2599.62496 C200.187459,2599.29682 200.015569,2598.99218 199.73435,2598.82029 L193.484365,2595.0703 C193.093741,2594.83593 192.58593,2594.92183 192.289071,2595.26561 C191.992136,2595.61718 191.984354,2596.12499 192.281213,2596.47655 L194.906252,2599.62496 L192.281213,2602.77338 C191.984354,2603.12494 191.992136,2603.63275 192.289071,2603.98431 C192.562508,2604.30467 193.062461,2604.42964 193.484365,2604.17962 Z M212.460837,2603.98431 C212.757772,2603.63275 212.765554,2603.12494 212.468695,2602.77338 L209.843655,2599.62496 L212.468695,2596.47655 C212.765554,2596.12499 212.757772,2595.60932 212.460837,2595.26561 C212.163978,2594.92183 211.656166,2594.84371 211.265542,2595.0703 L205.015557,2598.82029 C204.734338,2598.99218 204.562449,2599.29682 204.562449,2599.62496 C204.562449,2599.9531 204.734338,2600.25774 205.015557,2600.42963 L211.265542,2604.17962 C211.687447,2604.42964 212.1874,2604.30467 212.460837,2603.98431 Z M210.796793,2611.91398 C210.257778,2607.61712 205.921851,2604.62495 202.374954,2604.62495 C198.828057,2604.62495 194.49213,2607.61712 193.953114,2611.91398 C193.835927,2612.83584 194.49213,2613.60152 195.164049,2613.31245 C196.937497,2612.55462 199.562461,2612.12493 202.374954,2612.12493 C205.187447,2612.12493 207.81241,2612.55462 209.585859,2613.31245 C210.24992,2613.60152 210.913981,2612.8437 210.796793,2611.91398 Z" id="bad-emoji-icon"></path>
        </g>
    </g>
</svg>