<?xml version="1.0" encoding="UTF-8"?>
<svg width="18px" height="19px" viewBox="0 0 18 19" version="1.1" xmlns="http://www.w3.org/2000/svg" xmlns:xlink="http://www.w3.org/1999/xlink">
    <title>72CB7D05-44B8-4886-B48F-85BC4DC38D50</title>
    <g id="Templates" stroke="none" stroke-width="1" fill="none" fill-rule="evenodd">
        <g id="Content-page-template-news_article" transform="translate(-437.000000, -2184.000000)" fill="#D50059" fill-rule="nonzero">
            <g id="Group" transform="translate(133.000000, 2180.000000)">
                <path d="M309.731107,17.7507607 C309.847803,17.7507607 309.95358,17.7032792 310.029969,17.6266155 L319.83363,7.82261128 L319.906071,7.89501787 L319.810421,10.4835623 L319.810318,10.4939649 L319.810318,10.4939649 C319.810318,10.7423164 319.989571,10.9491369 320.225634,10.992031 L320.316684,11.0000215 L321.487721,11.0000215 C321.76715,11.0000215 321.993983,10.7731887 321.993983,10.4937589 L321.999957,4.75630008 C321.999957,4.47687035 321.773124,4.25003755 321.493695,4.25003755 L315.756236,4.25601135 C315.476806,4.25601135 315.249973,4.48284416 315.249973,4.76227388 L315.249973,5.93341366 C315.249973,6.21280906 315.476806,6.43967619 315.756236,6.43967619 L315.766432,6.43957319 L315.766432,6.43957319 L318.354977,6.3439237 L318.427383,6.41636463 L308.623722,16.2203688 C308.547059,16.2967579 308.499577,16.4024324 308.499577,16.5191276 C308.499577,16.6358227 308.547059,16.7416002 308.623722,16.8180236 L309.432314,17.6266155 C309.508738,17.7032792 309.614412,17.7507607 309.731107,17.7507607 Z M318.062466,22.2499946 C318.99383,22.2499946 319.749962,21.4938624 319.749962,20.5624987 L319.749962,14.9375121 C319.749962,14.627046 319.49793,14.3750134 319.187464,14.3750134 L318.624965,14.3750134 C318.314499,14.3750134 318.062466,14.627046 318.062466,14.9375121 L318.062466,20.3515617 C318.062466,20.4679821 317.96795,20.5624987 317.851529,20.5624987 L305.898433,20.5624987 C305.782013,20.5624987 305.687496,20.4679821 305.687496,20.3515617 L305.687496,8.39846516 C305.687496,8.28204469 305.782013,8.18752816 305.898433,8.18752816 L311.312483,8.18752816 C311.622949,8.18752816 311.874981,7.93549553 311.874981,7.6250295 L311.874981,7.06253085 C311.874981,6.75206482 311.622949,6.50003219 311.312483,6.50003219 L305.687496,6.50003219 C304.756132,6.50003219 304,7.25616442 304,8.18752816 L304,20.5624987 C304,21.4938624 304.756132,22.2499946 305.687496,22.2499946 L318.062466,22.2499946 Z" id=""></path>
            </g>
        </g>
    </g>
</svg>