<?xml version="1.0" encoding="UTF-8"?>
<svg width="39px" height="39px" viewBox="0 0 39 39" version="1.1" xmlns="http://www.w3.org/2000/svg" xmlns:xlink="http://www.w3.org/1999/xlink">
    <title>D7574201-5D9B-4A0C-A919-4725CC999CA1</title>
    <g id="--Icons" stroke="none" stroke-width="1" fill="none" fill-rule="evenodd">
        <g id="Icons" transform="translate(-62.000000, -2584.000000)" fill="#4B0242" fill-rule="nonzero">
            <path d="M81.3749538,2622.74991 C92.0780533,2622.74991 100.749908,2614.07805 100.749908,2603.37495 C100.749908,2592.67185 92.0780533,2584 81.3749538,2584 C70.6718543,2584 62,2592.67185 62,2603.37495 C62,2614.07805 70.6718543,2622.74991 81.3749538,2622.74991 Z M81.3749538,2618.99992 C72.7578021,2618.99992 65.7499911,2611.99211 65.7499911,2603.37495 C65.7499911,2594.7578 72.7578021,2587.74999 81.3749538,2587.74999 C89.9921055,2587.74999 96.9999166,2594.7578 96.9999166,2603.37495 C96.9999166,2611.99211 89.9921055,2618.99992 81.3749538,2618.99992 Z M75.1249747,2602.12496 C76.5077932,2602.12496 77.6249627,2601.00779 77.6249627,2599.62497 C77.6249627,2598.24214 76.5077932,2597.12497 75.1249747,2597.12497 C73.7421442,2597.12497 72.6249747,2598.24214 72.6249747,2599.62497 C72.6249747,2601.00779 73.7421442,2602.12496 75.1249747,2602.12496 Z M87.6249449,2602.12496 C89.0077634,2602.12496 90.1249329,2601.00779 90.1249329,2599.62497 C90.1249329,2598.24214 89.0077634,2597.12497 87.6249449,2597.12497 C86.2421144,2597.12497 85.1249449,2598.24214 85.1249449,2599.62497 C85.1249449,2601.00779 86.2421144,2602.12496 87.6249449,2602.12496 Z M81.3749538,2614.61715 C85.4374441,2614.61715 90.3827296,2612.04681 91.0077281,2608.36716 C91.1327736,2607.60148 90.4061518,2606.92963 89.6249036,2607.17179 C87.6015167,2607.82029 84.5937114,2608.19527 81.3749538,2608.19527 C78.1561962,2608.19527 75.1562492,2607.82029 73.125004,2607.17179 C72.3515378,2606.92963 71.6093521,2607.59369 71.7421795,2608.36716 C72.3593198,2612.04681 77.3124635,2614.61715 81.3749538,2614.61715 Z" id="good-emoji-icon"></path>
        </g>
    </g>
</svg>