<svg xmlns="http://www.w3.org/2000/svg" width="24" height="24" viewBox="0 0 24 24">
    <g fill="none" fill-rule="evenodd">
        <g fill="#212B32" fill-rule="nonzero">
            <path d="M38 55.625c6.42 0 11.625-5.203 11.625-11.625 0-6.418-5.205-11.625-11.625-11.625S26.375 37.582 26.375 44c0 6.422 5.205 11.625 11.625 11.625zm0-2.25c-5.181 0-9.375-4.192-9.375-9.375 0-5.18 4.194-9.375 9.375-9.375 5.18 0 9.375 4.194 9.375 9.375S43.183 53.375 38 53.375zm0-11.906c1.087 0 1.969-.882 1.969-1.969 0-1.087-.882-1.969-1.969-1.969-1.087 0-1.969.882-1.969 1.969 0 1.087.882 1.969 1.969 1.969zM40.062 50c.311 0 .563-.252.563-.562v-1.125c0-.311-.252-.563-.563-.563H39.5v-4.687c0-.311-.252-.563-.563-.563h-3c-.31 0-.562.252-.562.563v1.125c0 .31.252.562.562.562h.563v3h-.563c-.31 0-.562.252-.562.563v1.125c0 .31.252.562.562.562h4.125z" transform="translate(-151 -2529) translate(125 2497)"/>
        </g>
    </g>
</svg>
