<?xml version="1.0" encoding="UTF-8"?>
<svg width="39px" height="39px" viewBox="0 0 39 39" version="1.1" xmlns="http://www.w3.org/2000/svg" xmlns:xlink="http://www.w3.org/1999/xlink">
    <title>36DAE502-C678-406A-9A98-EE3122DDFA03</title>
    <g id="--Icons" stroke="none" stroke-width="1" fill="none" fill-rule="evenodd">
        <g id="Icons" transform="translate(-121.000000, -2584.000000)" fill="#4B0242" fill-rule="nonzero">
            <path d="M140.374954,2622.74991 C151.078053,2622.74991 159.749908,2614.07805 159.749908,2603.37495 C159.749908,2592.67185 151.078053,2584 140.374954,2584 C129.671854,2584 121,2592.67185 121,2603.37495 C121,2614.07805 129.671854,2622.74991 140.374954,2622.74991 Z M140.374954,2618.99992 C131.757802,2618.99992 124.749991,2611.99211 124.749991,2603.37495 C124.749991,2594.7578 131.757802,2587.74999 140.374954,2587.74999 C148.992106,2587.74999 155.999917,2594.7578 155.999917,2603.37495 C155.999917,2611.99211 148.992106,2618.99992 140.374954,2618.99992 Z M134.124975,2602.12496 C135.507793,2602.12496 136.624963,2601.00779 136.624963,2599.62497 C136.624963,2598.24214 135.507793,2597.12497 134.124975,2597.12497 C132.742144,2597.12497 131.624975,2598.24214 131.624975,2599.62497 C131.624975,2601.00779 132.742144,2602.12496 134.124975,2602.12496 Z M146.624945,2602.12496 C148.007763,2602.12496 149.124933,2601.00779 149.124933,2599.62497 C149.124933,2598.24214 148.007763,2597.12497 146.624945,2597.12497 C145.242114,2597.12497 144.124945,2598.24214 144.124945,2599.62497 C144.124945,2601.00779 145.242114,2602.12496 146.624945,2602.12496 Z M147.249937,2612.12493 C148.2812,2612.12493 149.124933,2611.2812 149.124933,2610.24994 C149.124933,2609.21867 148.2812,2608.37494 147.249937,2608.37494 L133.49997,2608.37494 C132.468707,2608.37494 131.624975,2609.21867 131.624975,2610.24994 C131.624975,2611.2812 132.468707,2612.12493 133.49997,2612.12493 L147.249937,2612.12493 Z" id="meh-emoji-icon"></path>
        </g>
    </g>
</svg>