<svg xmlns="http://www.w3.org/2000/svg" width="18" height="19"><path d="M16.755 18.004l.995-.995c.33-.33.33-.865.003-1.195l-3.505-3.505a.838.838 0 00-.597-.246h-.573a7.279 7.279 0 001.547-4.5A7.312 7.312 0 007.312.25 7.31 7.31 0 000 7.563a7.311 7.311 0 007.312 7.312 7.279 7.279 0 004.5-1.547v.573c0 .225.088.44.246.598l3.505 3.505c.33.33.865.33 1.192 0zm-9.443-5.941a4.497 4.497 0 01-4.5-4.5c0-2.486 2.011-4.5 4.5-4.5 2.486 0 4.5 2.01 4.5 4.5 0 2.485-2.01 4.5-4.5 4.5z" fill="#FFF" fill-rule="nonzero"/></svg>