<svg xmlns="http://www.w3.org/2000/svg" xmlns:xlink="http://www.w3.org/1999/xlink" width="400" height="87"><defs><path id="a" d="M.855.809h66.327v29.769H.855z"/><path id="c" d="M.827.013h71.021v77.852H.827z"/></defs><g fill="none" fill-rule="evenodd"><path fill="#BBCE00" d="M76.42 52.863c5.513-7.391 8.071-15.866 6.731-23.869-6.219-9.004-18.145-13.883-31.451-13.43 4.965 3.022 9.646 7.06 13.671 12.033 6.374 7.87 10.065 16.783 11.05 25.266"/><path fill="#E9528F" d="M76.42 52.863C71.277 59.755 63.564 65.7 54.047 69.427c-6.018 2.359-12.135 3.58-17.982 3.78 5.67 3.451 11.719 5.575 17.594 6.23 5.869.658 11.564-.146 16.543-2.546 5.213-6.297 7.275-14.915 6.216-24.028"/><path fill="#E61C7B" d="M83.152 28.996c1.337 8-1.218 16.477-6.732 23.868 1.056 9.114-1.006 17.729-6.216 24.028a25.73 25.73 0 002.748-1.535l.232-.209c.102-.09.198-.184.297-.281.182-.168.359-.334.538-.504l.005-.011c6.666-6.476 10.972-14.931 12.304-23.969.005-.024.008-.054.014-.081.036-.236.066-.471.093-.71.014-.116.03-.232.047-.352.02-.149.033-.3.05-.444.02-.208.041-.411.063-.615l.017-.197c.198-2.289.21-4.59.03-6.882a41.454 41.454 0 00-1.877-9.436 26.177 26.177 0 00-1.613-2.67"/><g><path fill="#FFED70" d="M33.511 7.974c-5.793-.667-11.415.148-16.33 2.574-5.148 6.375-7.18 15.098-6.135 24.322 5.072-6.976 12.688-12.993 22.079-16.768 5.94-2.385 11.975-3.624 17.747-3.826-5.598-3.493-11.565-5.636-17.361-6.302"/><g transform="translate(16.327)"><mask id="b" fill="#fff"><use xlink:href="#a"/></mask><path fill="#FFE500" d="M67.182 30.578a41.677 41.677 0 00-1.276-3.504c-.025-.063-.046-.123-.074-.186-.081-.2-.171-.403-.26-.603-.025-.06-.047-.118-.074-.176a62.45 62.45 0 00-.564-1.22c-.016-.03-.027-.062-.04-.087a41.81 41.81 0 00-1.581-2.982l-.011-.017a24.75 24.75 0 00-.452-.757c-.07-.117-.147-.235-.22-.353-.087-.137-.172-.274-.262-.414a28.167 28.167 0 00-.438-.666c-.021-.039-.046-.071-.073-.107a41.242 41.242 0 00-1.897-2.601 42.862 42.862 0 00-3.456-3.865c-.07-.077-.147-.151-.223-.225-.09-.088-.177-.17-.266-.258A42.401 42.401 0 0032.907 1.252c-.044-.005-.09-.013-.133-.019a21.353 21.353 0 00-.683-.09c-.126-.017-.25-.033-.379-.052-.152-.017-.302-.03-.454-.044a38.132 38.132 0 00-.854-.085 22.373 22.373 0 00-.79-.06C29.59.899 29.56.899 29.53.896a42.503 42.503 0 00-4.332-.057 41.985 41.985 0 00-14.044 3.012 42.566 42.566 0 00-7.488 3.914c-.09.058-.18.121-.272.179-.142.096-.289.194-.43.293a25.228 25.228 0 00-2.109 2.31c9.831-4.854 22.498-3.25 33.69 3.729 13.138-.455 24.9 4.482 31.042 13.599a25.436 25.436 0 011.595 2.703" mask="url(#b)"/></g><path fill="#28BCEE" d="M11.043 34.869c-5.442 7.48-7.965 16.055-6.642 24.155 5.04 7.48 13.875 12.149 24.147 13.327 2.234.26 4.542.349 6.893.266-4.904-3.056-9.516-7.143-13.489-12.173-6.294-7.966-9.935-16.987-10.909-25.575"/><g transform="translate(0 8.224)"><mask id="d" fill="#fff"><use xlink:href="#c"/></mask><path fill="#00B0EA" d="M71.848 66.571a25.75 25.75 0 01-2.712 1.555c-9.835 4.857-22.507 3.253-33.696-3.731-13.135.455-24.898-4.482-31.04-13.596-1.322-8.098 1.2-16.678 6.643-24.15-1.043-9.227.993-17.95 6.138-24.323A25.166 25.166 0 0119.293.013l-.014.01c-.343.24-.685.48-1.023.73-.128.093-.256.19-.38.28l-.327.249c-.24.181-.476.365-.713.554l-.027.024-.025.017c-.234.189-.465.38-.697.576l-.312.263c-.12.104-.24.205-.36.31-.364.323-.726.64-1.077.97L14.332 4c-.212.198-.419.4-.625.603-.071.063-.14.13-.205.198-.12.115-.234.233-.35.35-.156.157-.314.313-.46.475h-.003C6.523 12.074 2.534 20.33 1.266 29.132l-.017.11c-.032.233-.062.469-.092.702l-.044.373c-.019.15-.032.304-.051.455-.02.205-.041.405-.06.608-.006.077-.011.156-.02.233-.021.277-.046.546-.062.82l-.003.044a42.866 42.866 0 00-.03 5.057 42.848 42.848 0 002.961 13.49c.076.194.152.386.234.578.022.063.046.12.073.178.085.206.175.408.262.609.024.06.051.117.076.178l.008.013-.008-.013c.193.438.397.874.604 1.307v-.005a42.675 42.675 0 002.117 3.881l.033.052c.147.244.302.483.457.719.076.117.152.238.234.356a34.026 34.026 0 00.705 1.036c.043.058.084.118.125.176a43.135 43.135 0 003.295 4.073c.046.047.087.093.128.14.15.161.302.32.454.482.115.12.229.241.346.36l.171.17c11.598 11.718 29.445 16.024 45.669 9.508a42.363 42.363 0 008.201-4.394c.052-.033.1-.068.152-.101l.3-.214c.133-.093.266-.184.397-.282.057-.044.12-.088.177-.13.128-.095.258-.188.384-.284.108-.082.217-.162.326-.247.215-.164.425-.332.64-.496.051-.044.103-.085.155-.126.226-.181.446-.365.664-.548.106-.088.21-.179.315-.266.117-.102.237-.203.354-.307.313-.272.618-.546.914-.823l.038-.033zM14.466 3.881a36.18 36.18 0 01-.001 0z" mask="url(#d)"/></g></g><g fill="#000000"><path d="M120.333 28.382c.401-1.35 1.146-1.75 2.239-1.75 1.096 0 1.843.4 2.242 1.75l8.164 28.739h.097l4.629-28.439c.25-1.45 1.046-2.05 2.39-2.05 1.244 0 1.991.9 1.991 2 0 .55-.05 1.198-.25 2.249l-5.375 29.043c-.294 1.544-.945 2.893-3.134 2.893-1.693 0-2.74-.45-3.434-2.893l-7.27-26.091h-.099l-7.266 26.09c-.698 2.445-1.739 2.894-3.434 2.894-2.19 0-2.838-1.349-3.137-2.893L103.31 30.88c-.2-1.051-.25-1.7-.25-2.248 0-1.101.748-2 1.992-2 1.343 0 2.14.598 2.39 2.05l4.628 28.438h.102l8.162-28.74zm34.85 30.638c5.376 0 7.266-5.297 7.266-9.796 0-4.5-1.89-9.796-7.266-9.796s-7.27 5.297-7.27 9.796c0 4.5 1.894 9.796 7.27 9.796zm11.395 1.65c0 1.55-1.192 2.148-2.04 2.148-.894 0-2.036-.598-2.036-2.148v-1.85h-.102c-1.896 2.698-4.382 3.997-7.217 3.997-7.467 0-11.648-6.548-11.648-13.594 0-7.046 4.181-13.594 11.648-13.594 3.033 0 5.176 1.299 7.217 3.547h.102v-1.399c0-1.55 1.142-2.148 2.035-2.148.85 0 2.041.598 2.041 2.148V60.67zm9.855-.2c0 1.448-.846 2.35-2.19 2.35-1.34 0-2.189-.902-2.189-2.35V26.281c0-1.449.85-2.348 2.19-2.348 1.343 0 2.19.9 2.19 2.348v34.187zm13.683-24.842c3.632 0 8.81 1.95 8.81 4.698 0 .952-.645 1.799-1.994 1.799-1.888 0-2.638-2.698-6.816-2.698-2.489 0-4.632 1.1-4.632 3.349 0 4.648 14.14 4.149 14.14 11.845 0 5.548-4.728 8.196-9.66 8.196-5.57 0-9.955-2.797-9.955-5.048 0-1.2.849-1.997 1.797-1.997 1.94 0 3.533 3.246 8.31 3.246 3.187 0 5.123-1.798 5.123-3.597 0-5.197-14.131-4.9-14.131-12.295 0-4.9 4.58-7.498 9.008-7.498m23.617 23.392c5.373 0 7.266-5.297 7.266-9.796 0-4.5-1.893-9.796-7.266-9.796-5.374 0-7.27 5.297-7.27 9.796 0 4.5 1.896 9.796 7.27 9.796zm11.398 1.65c0 1.55-1.195 2.148-2.041 2.148-.896 0-2.039-.598-2.039-2.148v-1.85h-.101c-1.893 2.698-4.38 3.997-7.217 3.997-7.467 0-11.648-6.548-11.648-13.594 0-7.046 4.18-13.594 11.648-13.594 3.033 0 5.176 1.299 7.217 3.547h.101v-1.399c0-1.55 1.143-2.148 2.039-2.148.846 0 2.041.598 2.041 2.148V60.67zm9.855-.2c0 1.448-.849 2.35-2.192 2.35-1.34 0-2.19-.902-2.19-2.35V26.281c0-1.449.85-2.348 2.19-2.348 1.343 0 2.192.9 2.192 2.348v34.187zm9.804 0c0 1.448-.847 2.35-2.19 2.35-1.344 0-2.19-.902-2.19-2.35V26.281c0-1.449.846-2.348 2.19-2.348 1.343 0 2.19.9 2.19 2.348v34.187zm22.092-2.051h9.357c1.248 0 2.146.651 2.146 2.05 0 1.398-.898 2.05-2.146 2.05h-11.395c-1.643 0-2.34-1.052-2.34-2.4V28.981c0-1.448.848-2.348 2.189-2.348 1.343 0 2.19.9 2.19 2.348v29.437zm30.904-10.795c0-3.798-2.19-8.196-7.017-8.196-5.428-.201-7.368 4.147-7.516 8.196h14.533zm-14.533 3.3c0 4.549 2.887 8.096 7.813 8.096 5.824 0 7.316-3.6 8.959-3.6.796 0 1.596.7 1.596 1.95 0 2.15-5.429 5.449-10.604 5.449-8.462 0-12.146-6.55-12.146-13.595 0-7.197 4.48-13.594 11.898-13.594 7.214 0 11.398 6.546 11.398 12.943 0 1.55-.546 2.35-2.44 2.35h-16.474zm27.22 9.546c0 1.448-.85 2.35-2.19 2.35-1.343 0-2.192-.902-2.192-2.35V37.98c0-1.454.849-2.353 2.192-2.353 1.34 0 2.19.9 2.19 2.353v22.488zm-2.19-33.838c1.492 0 2.69 1.2 2.69 2.698 0 1.5-1.198 2.7-2.69 2.7s-2.687-1.2-2.687-2.7a2.682 2.682 0 012.687-2.698zm15.797 8.996c3.635 0 8.808 1.95 8.808 4.698 0 .952-.643 1.799-1.99 1.799-1.89 0-2.637-2.698-6.818-2.698-2.486 0-4.629 1.1-4.629 3.349 0 4.648 14.134 4.149 14.134 11.845 0 5.548-4.728 8.196-9.653 8.196-5.577 0-9.956-2.797-9.956-5.048 0-1.2.846-1.997 1.796-1.997 1.94 0 3.528 3.246 8.308 3.246 3.187 0 5.126-1.798 5.126-3.597 0-5.197-14.134-4.9-14.134-12.295 0-4.9 4.582-7.498 9.008-7.498m13.156 2.349c0-1.445.847-2.35 2.193-2.35 1.338 0 2.186.905 2.186 2.35v14.094c0 4.55 1.99 6.95 6.121 6.95 4.132 0 6.124-2.4 6.124-6.95V37.977c0-1.445.843-2.35 2.192-2.35 1.343 0 2.19.905 2.19 2.35v14.246c0 7.796-5.179 10.596-10.506 10.596-5.324 0-10.5-2.8-10.5-10.596V37.977zm26.389 0c0-1.445.846-2.35 2.192-2.35 1.338 0 2.187.905 2.187 2.35v2.249h.101c.992-2.047 3.434-4.599 5.973-4.599 1.538 0 2.434 1.001 2.434 2.251s-.896 2.05-2.736 2.397c-2.585.453-5.772 2.4-5.772 7.548v12.645c0 1.449-.85 2.35-2.187 2.35-1.346 0-2.192-.901-2.192-2.35v-22.49zm31.835 9.647c0-3.798-2.19-8.196-7.02-8.196-5.423-.201-7.363 4.147-7.51 8.196h14.53zm-14.53 3.3c0 4.549 2.886 8.096 7.812 8.096 5.822 0 7.316-3.6 8.956-3.6.797 0 1.596.7 1.596 1.95 0 2.15-5.428 5.449-10.604 5.449-8.461 0-12.145-6.55-12.145-13.595 0-7.197 4.48-13.594 11.895-13.594 7.22 0 11.404 6.546 11.404 12.943 0 1.55-.55 2.35-2.443 2.35H380.93z"/></g></g></svg>