<svg xmlns="http://www.w3.org/2000/svg" width="287" height="71"><g fill="#212B32" fill-rule="evenodd"><path d="M105.392 22.62a9.66 9.66 0 00-2.084-.292h-.265l-.037.124-.04.126c-.488 1.619-1.475 4.641-2.846 8.822l-.087.268-3.393 10.425c-1.934-7.148-4.13-14.87-5.272-18.554-.254-.63-.483-1.211-1.1-1.211h-.043c-.82 0-1.673.19-2.612.587l-.146.058-.15.06.05.155.045.153c.062.226.135.66.178.989a940.38 940.38 0 00-5.255 17.573c-1.475-5.333-3.161-10.791-4.402-14.817l-.566-1.833c-.663-2.223-.915-2.925-1.815-2.925-.777 0-2.38.409-3.119.798l-.142.075-.139.074.057.148.057.15c2.354 6.105 4.504 13.069 6.583 19.802l1.545 4.972.037.128.04.124h.262c.841 0 1.81-.217 2.292-.423.598-.297.886-.74 1.202-1.824.448-1.535 1.334-4.463 2.267-7.566l.258-.846 2.511-8.37a1274.05 1274.05 0 015.265 18.699l.021.069.034.132.036.13h.274c.76 0 2.094-.23 2.503-.488.47-.313.692-.75 1.022-1.61 2.33-6.37 5.31-14.613 7.703-21.87.219-.718.231-1.164.045-1.497-.146-.258-.393-.421-.774-.516m16.747 23.001l-.043-.084c0 .003-.07-.14-.07-.14l-.065-.143-.15.052-.153.051c-.18.064-.465.064-.638.064-.644.03-.969-.277-1.001-.939-.025-1.516.014-3.6.044-5.275l.004-.214c.018-.997.032-1.86.032-2.47 0-4.392-2.354-7.014-6.3-7.014-2.937 0-5.644 1.737-6.774 2.765l-.068.058-.066.06.014.173c.063.81.372 1.439.849 1.73.256.16.697.297 1.315.047l.018-.01.016-.005.014-.01.018-.01c.948-.645 2.39-1.414 3.87-1.414 2.295 0 3.111 1.783 3.111 3.312v.898c-.5.09-1.108.212-1.716.352l.014-.002a5.785 5.785 0 00-.286.064c-2.315.552-7.744 1.844-7.744 6.226 0 2.768 2.143 4.857 4.984 4.857 2.355 0 4.15-1.431 4.967-2.22.47 1.4 1.506 2.22 2.93 2.22.962 0 1.705-.263 2.216-.784.48-.492.713-1.18.695-2.046v-.077l-.021-.037-.016-.036zm-6.062-3.153c0 .627-.114.917-.226 1.12-.375.52-1.424 1.712-3.128 1.712-1.337 0-2.276-.84-2.276-2.04v-.038c0-2.017 3.013-2.98 5.63-3.441v2.687zm12.377 5.234c-.08-1.106-.16-3.245-.16-5.195V23.28c0-1.17-.016-1.844-.12-2.267-.114-.47-.358-.678-.792-.678-.622 0-2.233.201-3.097.585l-.12.055-.113.052.01.128.013.128c.066.681.156 1.872.156 4.353V47.53c0 .574.303.876.875.876.455 0 2.32-.122 3.089-.334-.004 0 .138-.037.138-.037l.146-.04-.014-.147-.01-.148m11.915-9.295c-.763-.444-1.587-.855-2.383-1.251l-.059-.03-1.12-.562c-.706-.395-1.519-.987-1.519-2.033 0-1.147.945-1.917 2.355-1.917.848 0 1.9.274 2.747.713l.032.018.027.014.032.004.037.005c.44.022.827-.14 1.136-.47.404-.424.635-1.132.57-1.719l-.008-.062-.005-.066-.05-.044-.048-.046c-.948-.907-2.546-1.451-4.271-1.451h-.04c-3.17 0-6.38 1.917-6.38 5.581 0 2.018 1.014 3.6 3.018 4.698.509.276 1.008.525 1.537.784l.106.055c.415.203.879.432 1.355.68 1.25.647 1.76 1.26 1.76 2.115 0 1.258-1.024 2.038-2.674 2.038-1.316 0-2.875-.51-4.063-1.332l-.083-.055-.077-.051-.087.035-.089.036c-.644.26-.969 1.013-1.06 1.634-.1.512.11 1.08.555 1.474 1.005.852 2.834 1.4 4.668 1.4 3.303 0 6.856-1.83 6.856-5.852 0-1.83-.962-3.333-2.776-4.343m20.595 7.291l-.013-.03-.018-.038-.039-.083-.066-.148-.065-.144-.153.052-.157.051c-.18.064-.467.064-.638.064-.642.03-.966-.277-1.001-.939-.023-1.413.01-3.323.043-5.009l.003-.256c.021-1.134.037-2.053.037-2.694 0-4.392-2.354-7.014-6.3-7.014-2.933 0-5.64 1.737-6.774 2.765l-.066.058-.066.06.007.086.006.087c.062.81.375 1.439.852 1.73.254.162.69.3 1.312.047l.018-.007.014-.006.01-.007.016-.01c.955-.65 2.397-1.42 3.873-1.42 2.296 0 3.112 1.784 3.112 3.313v.898c-.503.093-1.111.213-1.716.352l-.267.062c-2.317.552-7.742 1.843-7.742 6.226 0 2.768 2.143 4.857 4.98 4.857 2.352 0 4.151-1.431 4.964-2.22.469 1.4 1.507 2.22 2.932 2.22.962 0 1.707-.263 2.215-.784.479-.492.711-1.18.69-2.048l-.003-.038v-.033zm-6.087-3.23c0 .621-.115.915-.226 1.12-.375.52-1.424 1.713-3.13 1.713-1.34 0-2.275-.84-2.275-2.04v-.038c0-2.019 3.012-2.98 5.631-3.441v2.687zm12.37 5.239a86.979 86.979 0 01-.156-5.2V23.282c0-1.266-.036-1.903-.126-2.274-.146-.601-.521-.67-.792-.67-.618 0-2.226.2-3.093.584 0 .002-.12.055-.12.055l-.117.052.014.128.01.128c.07.67.161 1.851.161 4.353V47.53c0 .574.302.876.875.876.455 0 2.318-.122 3.083-.334l.142-.037.139-.04-.009-.145-.01-.146m7.976.146l-.01-.147c-.08-1.095-.16-3.23-.16-5.197V23.28c0-1.266-.034-1.903-.129-2.274-.145-.601-.52-.67-.787-.67-.623 0-2.23.2-3.096.584 0 .002-.117.055-.117.055l-.12.052.015.13.014.128c.066.675.16 1.863.16 4.35V47.53c0 .574.299.876.871.876.452 0 2.317-.122 3.085-.332.004 0 .146-.04.146-.04l.139-.04-.011-.144m29.496-2.474c-.043.558-.484 1.397-1.078 1.753-.799.558-3.115 1.24-5.866 1.24-8.772 0-13.238-5.266-13.238-12.924 0-7.893 5.862-13.197 13.558-13.197 3.713 0 6.422 1.234 7.06 1.991-.122.994-.878 1.32-1.235 1.236-1.478-.798-3.592-1.433-6.022-1.433-5.783 0-10.927 3.867-10.927 11.245 0 6.66 4.026 11.328 11.528 11.328 2.31 0 4.94-.761 6.14-1.357l.08.118m9.64-15.397c5.424 0 8.258 3.867 8.258 9.017 0 5.062-3.195 9.248-8.46 9.248-6.459 0-8.494-5.102-8.494-8.933 0-5.1 3.435-9.332 8.657-9.332h.04zm-.316 1.518c-2.872 0-6.103 2.312-6.103 7.461 0 5.1 2.952 7.773 6.46 7.773 2.314 0 5.943-1.595 5.943-7.621 0-3.907-1.956-7.613-6.263-7.613h-.037zm11.426 3.593c0-2.437-.077-3.632-.16-4.508.52-.239 1.358-.363 1.757-.363.24 0 .4.2.4 2.434.037 2.634.037 5.505.037 7.938 0 5.226 2.473 5.747 4.508 5.747 2.393 0 4.425-1.677 5.103-2.8V31.616c0-.836.117-1.033.478-1.158.48-.114 1.236-.238 1.679-.238 0 .882-.123 3.674-.123 7.102v6.698c0 2.233.437 2.676 1.636 2.83v.164c-.041.356-.598 1.23-1.32 1.23-1.234 0-2.15-1.155-2.188-3.07-1.236 1.48-2.716 2.196-3.553 2.557a6.42 6.42 0 01-2.59.514c-3.786 0-5.664-2.513-5.664-6.417V35.09m30.72 2.23c.04-3.788-1.593-5.506-4.306-5.506-2.514 0-4.588 1.84-5.543 3.233v11.886c0 .838-.2.955-.76.994-.442.084-.996.038-1.396.084.08-.799.122-3.115.122-7.458v-6.899c0-1.676-.243-2.436-.6-2.754v-.12c.241-.236 1.118-.757 1.432-.757.962 0 1.122 2.196 1.122 3.228 1.512-1.714 3.907-3.272 6.263-3.272 4.104 0 5.702 2.75 5.702 7.178v6.147c0 2.513.077 3.747.157 4.383-.8.162-1.355.324-1.832.324-.322 0-.402-.162-.402-.441l.041-10.25m18.43 8.374c-.08.68-.357 1.357-.794 1.597-.758.48-2.351.953-4.067.953-3.032 0-8.894-1.032-8.894-9.01 0-5.388 4.067-9.255 9.332-9.255 2.633 0 4.466.96 4.784 1.44 0 .756-.517 1.435-1.116 1.275-1.238-.638-2.554-.955-4.03-.955-4.025 0-6.7 3.231-6.7 7.37 0 6.11 4.467 7.344 7.182 7.344 1.234 0 3.071-.32 4.223-.837l.08.078m4.864-23.608c.755 0 1.276.635 1.276 1.396 0 .674-.478 1.435-1.315 1.435-.959 0-1.357-.678-1.357-1.394 0-.92.718-1.437 1.357-1.437h.039zm.995 24.723c0 .722-.156.92-.517 1-.357.08-.878.156-1.636.202.043-1.597.123-3.914.123-6.225v-6.697c0-2.436-.08-3.63-.16-4.507.517-.239 1.396-.363 1.753-.363.28 0 .437.2.437 2.434V46.81zm3.786-21.211c0-2.356-.08-3.752-.164-4.55.841-.317 1.442-.397 1.796-.397.281 0 .404.204.404 2.59v19.265c0 1.954.08 4.109.117 5.181-.597.201-1.275.324-1.636.324-.316 0-.517-.123-.517-.52V25.599M37.838 1.975L36.702.411 35.492 0l-.45.302c-.017.01-.212-.058-.227-.055l-1.987.754-.546.76a.233.233 0 01-.091.05l-1.197.333-.089.03a.886.886 0 01-.197.337l.103.265.181.304.907.06c.073.023.132.09.143.167a.224.224 0 01-.091.207l-.589.23.46.292 1.438.007a.21.21 0 01.202.166l.1.405c-.045.03.61-.27.779-.332.889-.335 2.334-.742 4.036-.297l-.539-2.01zm-5.153.057l.055-.108.372-.244v-.252l.818-.082.583.834-1.828-.148zm3.496-.17c0 .007-.005.01-.014.065l-.135.242-.096.086-.006-.06-.174-.127-.014-.391-.052-.311.01-.242-.193-.306L35.22.9l-.062.082-.082-.06.068-.218a.095.095 0 01.026-.027l.308-.23c.039-.034.1-.03.137.005l.421.396c.014.013.023.03.032.045l.134.455c.001.01.007.023.003.034l-.023.48zm-2.425 3.833c.001-.001.005-.003.007-.007-.004.007-.007.007-.007.007"/><path d="M39.558 11.828a29.44 29.44 0 01-.128-.729l.055-3.592-.678-2.174-.15-.463c-.8-.24-3.56-.386-4.901.825-.006.006-.013.011-.02.022 0 .028.002.062-.014.09l-.78.571c-.045.082-.404.313-.5.293l-.706-.055a9.97 9.97 0 01-.512-.345l-3.19-2.798-.89.23.034 1.253.76.355c.12-.119.153-.094.18-.07l1.553 1.843.392.368.705.158 2.115.03 1.086-1.32c.016-.015.574-.178.594-.186l1.222-.26.167.223.204.333-1.483.444-1.778 1.483c-.039.03-.178-.144-.224-.144l-2.909.029-2.822-.176-.587.401.964.041 2.244.144 2.223.15-2.11.24-1.928-.167-1.407-.148.379.85 4.731.965 1.423.12 2.662-.189 1.25-.672 1.68-1.625.315.249.037.197-.142 1.698-.26-.297-.073-.297-.204.233-.434.041-.4.43c-.012.016-.429.383-.446.397l-.665.455c-.043.032-1.026.265-1.074.26l-3.112-.11-.187 1.941s.105.83.262 1.298l.37.539s1.11-1.001 2.889-.834c.338.032 1.277.72 1.668 1.056.046.041-.086.471-.086.471s-1.228-.729-2.272-.714c-.494.007-1.017.28-1.255.44-.696.47-1.197 1.167-1.27 1.864-.098.942.374 1.29.374 1.29l.023-.134c-.002.007 0 .018-.002.028.092-.304 2.728-.25 2.767-.025.14.75.722 2.986 2.197 3.2 1.885.271 2.737-.374 2.94-.844a.207.207 0 01.249-.117l.44.126.104-3.122-1.66-6.067zm.87 7.945c-.383.944-.497-1.784-1.532-4.453-.74-1.906-.053-3.11-.167-4 .185.981.512 2.435.583 2.622.57 1.398.628 1.66.905 2.719 0 0 .594 2.175.212 3.112zm-8.299.86c-.34.619-.847 1.154-1.633 1.272-.167.02-.318.03-.469.04l-.43-.337.492-.319 2.04-.656"/><path d="M23.443 16.718l-.208-.473.481-.784.121-.251 1.001 1.5h.806l-1.27-1.726c0-.007-.508-.76-.512-.77l-.759-2.336.624-.719.253.207.611 1.282.352.686.672-.014-1.221-3.028s.002-2.17-.016-2.202l-.78-1.536.41-1.1.493.2.35.625.487.762.89-.11-1.306-2.084-.027-.55 1.444-.172.055.527s.08.775.084.778l.36.223.584.277-.03 1.563h-.38c-.024 0-.419.02-.442.03l-.969.763c-.057.018.797 1.961.863 1.972l.95.172.028 2.31c0-.089-.045 1.967 0 2.004l1.305 1.12-.071.996-.978.92a.188.188 0 00-.059.142v3.454a.897.897 0 01-.25-.318.211.211 0 00-.251-.117l-1.115.32c-.082.023-.292.094-.303.185-.085.84-.981 1.33-1.082 1.41v-4.37c0-.04-1.172-1.734-1.195-1.768m4.859 11.714c1.935-.46 3.05-.443 5.557-.443 2.464 0 3.549-.018 5.482.443H28.302m9.109 14.595h.004l-.007-.006v-.007l-.005.011.008.002m-2.22-1.28h.001m-.497 2.055v-.005h-.002l.002.005m.094-1.675l.005-.004v-.001l-.005.005m7.214.9h.001l-.005-.006-.002-.008-.005.012.011.002m-2.719.775v-.005h-.002l.002.005m.094-1.675l.005-.004v-.001l-.005.005m.402-.38h.002m.725 4.361h.002l.005.006-.007-.006m-.8 1.277h.002l-.007-.005v-.004l-.004.009h.009M36.988 48.162v-.005.005m-.001-.011l.003-.003v-.002l-.003.005m-9.862-15.836h.002l-.007-.005v-.005l-.006.009.011.001m-2.623-.898l.006-.007-.006.007m-.094 1.674v-.004l-.002-.002.002.006m.494-2.056h.002m6.81 1.28h.002l-.003-.005-.004-.007-.003.011.008.001m-2.622-.898l.005-.005v-.002l-.005.007m-.095 1.674v-.004l-.001-.002.001.006m.495-2.056h.002m.727 4.362h.002l.005.005-.007-.005m-.802 1.277h.002l-.006-.008v-.003l-.005.009.009.002m-2.719.766l.004-.004v-.001l-.004.005m.002.011v-.006.006m.494-2.058h.002"/><path d="M33.798 29.223l-6.694.01s-2.424.46-3.81 1.943l-.015 8.686h10.548l-.029-10.639zm-3.18 1.613l.339-.818.01-.027h.376l.012.027.299.665.007.013-.003.016-.262 1.232-.003.02-.016.01-.194.114-.014.009-.016-.002-.269-.041-.03-.005-.007-.03-.231-1.156-.004-.015.005-.012zm1.25 1.846l.042.003-.002.043-.009.517-.001.041-.041.002-.76.034-.738-.002h-.039l-.005-.037-.057-.434-.005-.041.039-.009.708-.172.007-.002.007.002.467.033.386.022zm-2.863-.811l-.008-.021.015-.018.52-.637.006-.005.004-.004.01-.007.013.046.003-.003.01-.005v-.047h.136l-.023.018.47.07.026.005.009.023.363.985.007.021-.013.02-.117.165.009.055-.082.032-.164-.241-.27.033v.866l-.01.013-.39.423-.025.027-.032-.02-.434-.276.02-.003h-.068l.027-.06v-.017h.007l.247-.567-.266-.871zm-.493 2.375h.379l.007.032.261.916.002.01v.008l-.156 1.175-.004.03-.028.006-.25.076-.014.006-.014-.006-.25-.092-.024-.009-.005-.025-.31-1.447-.003-.018.009-.014.388-.626.012-.022zm.905 2.69l.034.01v.035l-.013.557-.04.003-.703.036-.795-.004-.039-.001-.003-.04-.059-.433-.005-.032.03-.013.391-.17.005-.004h.008l.665-.087h.017l.506.144zm-2.715-4.775l.329-.872.01-.023.025-.005.582-.09.016-.002.012.008.011.006.002.002-.02.035.025-.03.395.448.016.016-.244 1.193.034.107.25.362.026.036-.036.025-.496.37-.036.026-.026-.035-.463-.619-.014-.018.006-.02.186-.732-.133-.037-.215.162-.038.026-.211-.316.007-.023zm.146.524l-.002.043-.01.517-.003.04-.039.003-.64.064h-.005l-.854-.032h-.037l-.005-.037-.073-.548-.007-.052.051.002.765.016.421-.04h.007l.388.02.043.004zm-1.34-2.046l.388-.626.013-.022h.371l.013.027.299.665.005.013-.004.014-.25 1.308-.004.015-.007.009-.194.195-.02.022-.028-.013-.192-.078-.021-.007-.007-.023-.367-1.466-.005-.017.01-.016zm-.643 2.583l-.01.013-.388.423-.025.027-.032-.02-.434-.276.02-.003h-.068l.027-.06v-.017h.007l.245-.567-.265-.871-.007-.021.014-.018.521-.637.004-.005.003-.002.01-.007.015.046.004-.005.007-.005v-.002l.002-.045h.126l-.02.016.477.071.027.006.009.023.36.985.008.021-.013.02-.115.165.007.054-.08.033-.162-.241-.274.033v.866zm1.42 1.718l-.008.02-.018.007-.178.076-.026.01-.022-.019-.506-.466-.297.027-.029.004-.014-.024-.197-.323-.013-.02.01-.023.259-.585.01-.023.025-.004.27-.039.034-.005.014.03.17.386.463-.363.034-.026.027.033.274.333-.01-.302-.003-.038.036-.007.306-.076.044-.013.167.813.007.028-.024.016-.22.162-.012.009h-.014l-.206-.005-.299.238-.055.169zm1.185 2.537l-.012.013-.388.423-.025.028-.032-.02-.434-.278.045-.02-.01-.005-.056-.007v-.006c-.002 0 0-.046 0-.046h.009l.002-.003.007-.024.001.002.235-.537-.267-.875-.007-.021.016-.018.521-.633.004-.005.009-.009.018.046.003-.005.009-.007v-.045h.116l-.016.015.485.072.025.004.009.023.36.983.01.024-.015.02-.115.163.009.06-.082.03-.162-.245-.272.034v.87zm2.22 1.152l-.278.157-.007.004h-.011l-.27.028-.182.203-.055.172-.005.02-.02.007-.176.08-.032.012-.021-.025-.498-.611-.172.16-.034.03-.03-.034-.3-.322-.02-.02.012-.026.26-.581.01-.023.023-.004.27-.04.034-.004.015.03.161.368.267-.358.029-.037.035.029.477.393-.013-.337-.002-.035.034-.009.308-.08.046-.012.167.817.006.032-.029.016zm1.05-.995l-.498.366-.035.027-.027-.038-.462-.615-.013-.016.004-.021.188-.736-.137-.036-.211.158-.04.03-.026-.039-.173-.26-.012-.02.007-.02.33-.871.01-.023.025-.004.583-.09.016-.004.014.01.012.008-.016.026.018-.021.397.446.014.016-.004.022-.24 1.173.034.105.253.365.023.035-.034.027zm1.465-3.155l-.29.057-.009.002-.206-.005-.3.238-.054.169-.005.02-.02.007-.176.076-.03.012-.023-.024-.498-.609-.174.157-.032.028-.029-.032-.3-.316-.021-.021.012-.029.258-.585.01-.023.025-.004.27-.039.035-.005.014.03.169.386.464-.363.034-.026.026.033.276.333-.014-.34.035-.007.308-.076.042-.01.011.042.226.87.012.045-.046.01zm.992-1.102l-.496.37-.035.026-.027-.035-.462-.619-.015-.018.006-.02.187-.732-.134-.037-.213.162-.038.028-.026-.04-.187-.278.009-.023.329-.872.009-.023.025-.005.581-.09.016-.002.013.007.01.005.002.002-.018.037.023-.03.397.448.014.016-.003.023-.24 1.17.033.107.251.362.025.036-.036.025zm11.16 6.485l-10.559.028-.016 15.207c-.001 0 4.663-2.82 6.5-4.305 1.655-1.34 4.107-2.701 4.107-7.008 0-.31-.032-3.922-.032-3.922zm-3.156 1.46l.337-.817.013-.026h.375l.013.026.298.664.006.014-.004.014-.26 1.234-.005.02-.016.01-.194.116-.012.005h-.016l-.27-.04-.03-.004-.006-.032-.233-1.156-.002-.014.006-.014zm1.25 1.847l.042.004-.001.042-.011.518v.04l-.043.002-.76.034h-.774l-.006-.039-.057-.434-.005-.04.04-.01.707-.172.007-.002.007.002.468.035.386.02zm-2.863-.81l-.007-.022.014-.018.521-.638.005-.004.004-.003.009-.008.014.047.004-.004.007-.005.001-.045h.137l-.023.016.47.072.026.003.01.023.36.983.01.024-.015.02-.116.165.007.056-.081.03-.162-.243-.27.036v.864l-.013.014-.388.423-.026.027-.03-.02-.434-.274.02-.005h-.068l.025-.06v-.018h.008l.248-.566-.267-.87zm-.493 2.373h.377l.01.034.26.914.002.009v.008l-.156 1.178-.005.03-.027.007-.25.076-.013.006-.015-.006-.25-.094-.023-.009-.006-.023-.31-1.449-.003-.018.01-.014.387-.628.012-.021zM40 47.424l.034.01-.002.034-.012.559-.04.003-.702.034-.794-.003-.04-.002-.005-.038-.058-.433-.004-.034.03-.013.391-.169.006-.003h.005l.667-.087.009-.002.009.002.506.142zm-2.715-4.776l.33-.871.008-.023.025-.004.583-.09.016-.004.013.009.01.005.002.002-.02.035.024-.03.396.446.014.018-.003.022-.24 1.17.035.108.251.363.023.035-.034.025-.497.368-.034.029-.029-.036-.462-.617-.012-.018.005-.02.187-.734-.134-.037-.215.162-.037.028-.214-.32.01-.021zm.144.525v.042l-.01.518-.002.039-.04.003-.64.064h-.007l-.851-.03-.038-.002-.005-.037-.08-.601.052.002.762.016.424-.038H37l.386.02.042.004zm-1.339-2.047l.388-.626.014-.021h.372l.012.026.297.664.006.014-.002.014-.255 1.323-.2.204-.022.022-.026-.013-.194-.078-.022-.007-.005-.023-.368-1.465-.004-.018.01-.016zm-.642 2.582l-.01.014-.39.423-.025.027-.03-.02-.434-.274.018-.005h-.066l.025-.06v-.018h.01l.245-.566-.265-.87-.008-.022.015-.018.52-.638.004-.004.004-.002.009-.007.014.047.003-.006.01-.005v-.045h.127l-.02.015.477.073.027.003.007.023.363.983.007.024-.012.02-.118.165.01.055-.083.032-.162-.244-.272.036v.864zm1.418 1.72l-.006.019-.02.009-.175.074-.027.011-.021-.02-.509-.465-.297.028-.026.002-.016-.023-.196-.324-.013-.021.01-.02.259-.587.01-.023.024-.003.272-.04.032-.003.014.029.169.385.466-.362.034-.027.026.034.274.332-.012-.3-.002-.04.035-.006.308-.077.044-.012.168.812.005.029-.023.016-.219.163-.012.007-.016-.001-.205-.002-.3.235-.055.17zm1.186 2.538l-.011.013-.388.423-.025.027-.032-.018-.435-.281.046-.018-.009-.005-.059-.007v-.007s0-.045.002-.045h.01v-.003l.008-.024.002.002.234-.539-.266-.873-.007-.023.014-.017.52-.633.006-.008.01-.007.015.047.005-.004.008-.007.001-.046h.116l-.016.014.484.073.026.003.01.025.36.984.007.02-.012.02-.116.166.007.058-.08.032-.163-.247-.272.034v.871zm2.22 1.15l-.277.157-.009.006h-.009l-.27.028-.181.201-.055.172-.008.02-.017.007-.176.08-.032.014-.022-.026-.498-.612-.174.16-.032.03-.03-.034-.299-.32-.021-.02.012-.028.258-.581.01-.023.026-.002.27-.04.034-.006.012.032.162.368.268-.357.027-.04.036.03.478.392-.012-.334-.002-.036.034-.009.307-.08.045-.012.01.046.157.772.007.03-.029.016zm1.05-.993l-.498.366-.034.025-.027-.036-.462-.617-.014-.016.005-.02.187-.737-.135-.036-.214.16-.037.03-.027-.04-.172-.26-.013-.02.007-.02.33-.87.01-.025.025-.004.581-.09.018-.002.014.009.013.007-.016.028.018-.025.394.448.016.016-.005.024-.238 1.173.033.103.251.365.025.037-.035.027zm1.466-3.158l-.29.059h-.01l-.204-.002-.301.235-.053.17-.006.02-.02.009-.177.074-.03.011-.022-.023-.5-.608-.172.156-.032.029-.03-.032-.3-.317-.02-.023.012-.025.258-.587.01-.023.026-.003.27-.04.034-.003.012.029.17.385.463-.362.036-.027.027.034.275.332-.014-.3-.002-.04.036-.006.307-.077.043-.01.012.042.226.87.01.046-.044.007zm.993-1.1l-.498.367-.034.029-.027-.036-.464-.617-.012-.018.005-.02.187-.734-.134-.037-.213.162-.039.028-.025-.04-.187-.28.336-.892.011-.023.025-.004.581-.09.015-.004.014.007.01.007h.002l-.017.037.023-.03.396.446.014.018-.005.022-.238 1.17.034.108.25.363.025.035-.035.025zM26.213 25.738l1.067.215.878-.704-1.088-.206-.857.695m6.753-1.008l1.035.468 1.026-.468-1.026-.466-1.035.466m6.801.628l.843.67.027-.002 1.054-.199-.867-.677-1.057.208"/><path d="M46.025 26.688c1.175-1.85 2.608-3.535 3.262-4.318-.152-.176-.416-.485-.508-.569-.42.224-.932.651-1.343.952-1.072.786-1.872 1.342-2.572 1.397-.018.004-.466.09-1.227-.252-1.686-.752-1.995-1.51-2.095-2.02l-.084-.062-.752-.178c-.2.318-.595.594-1.127.775-.605.212-2.21.438-3.266-.395-.985-.777-1.517-2.313-1.613-2.882-.256-.004-.539-.043-.82-.043-.293 0-.6.04-.772.04-.01.065-.028.154-.04.23-.027.143-.06.3-.102.467-.044.176-.1.362-.165.547a8.548 8.548 0 01-.226.566c-.373.826-.953 1.47-2.02 1.628-.094.01-.181.013-.276.025a5.706 5.706 0 01-.474.036c-.694.016-1.288-.096-1.748-.285a2.365 2.365 0 01-.418-.21c-.235-.147-.42-.31-.537-.5l-.86.22c-.066.32-.242.69-.564 1.027-.196.207-.41.441-.706.635-.39.247-.875.52-1.465.628-.946.176-2.086-.594-3.28-1.45-.428-.309-1.029-.744-1.327-.906a8.192 8.192 0 00-.562.572 65.089 65.089 0 013.223 4.23c.68-.31 1.55-.894 2.637-1.049l.057.39c-.894.165-1.856.798-2.334 1.14.035.048.103.142.138.193.736-.407 1.248-.656 2.315-1.042l.187.376c-1.095.407-1.662.801-2.28 1.223.386.852.466.814.845 1.824 1.817-1.46 6.028-2.656 10.78-2.656 4.693 0 8.84 1.122 10.694 2.594.212-.567.408-.802.792-1.739a6.846 6.846 0 00-2.072-1.262l.187-.331c.99.364 1.913.933 2.19 1.099l.13-.233c-.462-.326-1.155-.84-2.18-1.156l.023-.34c1.003.304 1.844.726 2.355 1.064zm-18.64-.15l-2.328-.378-.064-.258 1.888-1.426 2.396.357.017.073.048.185-1.957 1.447zm3.992-1.614c-.571.044-1.035.1-1.587.172-.008-.076-.081-.46-.081-.47.544-.067 1.253-.092 1.668-.11v.408zm4.822-.27v.22l-2.234.909-2.167-.902v-.293l2.228-.91 2.173.903v.073zm1.979.535l-1.467-.251c0-.048.003-.382 0-.4.505.052 1.07.114 1.566.188-.012.05-.085.399-.1.463zm4.626 1.052l-2.263.377-1.999-1.397.068-.283 2.242-.373 1.961 1.347.06.043-.069.286zm-4.381 4.595l-.146.052-.177.469-.207.076.207-.31 4.278.042-.01-.085-2.012-.272-.007-.073.169-.368 1.136.13-.169.127-.56-.087-.04.022.012.037 2.005.416-.058.525-.683-.079.147.096-.057.091.874.325.35.105-.118.532-.087.318-.55-.158-.19-.1.203-.22-.076-.183-.329-.126.066-.034-.304-.073-.171-.23-.185.698-1.534.24.087-.345.832-.114-.242-.326.012-.177.6-.187-3.329.517-.148-.313-.208.447-1.868.366-.073-.226.135-.15.548-.081.34-.363-.885-.466-.497-.375.156-.073-.404-.153.075-.211.361-.128.718.754.248.01.026-.387.182-.13-.032-.445.291-.024.219-.226.52.066.56.837zm0 2.9l-.146.052-.177.47-.207.076.207-.312 4.278.043-.01-.087-2.012-.27-.007-.073.169-.368 1.136.128-.169.13-.56-.088-.04.022.012.037 2.005.416-.058.523-.683-.077.147.096-.057.091.874.326.35.104-.118.532-.087.318-.55-.158-.19-.1.203-.22-.076-.183-.329-.126.066-.034-.304-.073-.171-.23-.185.698-1.534.24.087-.345.832-.114-.242-.325.012-.178.6-.187-3.329.517-.148-.312-.208.446-1.868.366-.073-.226.135-.15.548-.08.34-.364-.885-.465-.497-.376.156-.073-.404-.152.075-.212.361-.128.718.754.248.01.026-.387.182-.13-.032-.444.291-.025.219-.226.52.066.56.837zm0 2.88l-.146.052-.177.47-.207.076.207-.311 4.278.043-.01-.086-2.012-.272-.007-.073.169-.368 1.136.13-.169.128-.56-.087-.04.021.012.038 2.005.416-.058.522-.683-.074.147.094-.057.09.874.326.35.105-.118.532-.087.318-.55-.158-.19-.1.203-.22-.076-.184-.329-.126.066-.034-.304-.072-.171-.23-.185.697-1.534.24.087-.345.832-.114-.242-.325.012-.178.6-.186-3.329.517-.148-.313-.208.446-1.868.367-.073-.226.135-.15.548-.081.34-.363-.885-.466-.497-.375.156-.073-.404-.153.075-.212.361-.128.718.754.248.011.026-.388.182-.13-.032-.444.291-.025.219-.226.52.066.56.838zm-10.841 5.273l-.146.051-.176.47-.208.076.208-.311 4.278.043-.012-.086-2.011-.272-.007-.073.169-.368 1.138.128-.17.13-.561-.087-.041.021.014.038 2.006.416-.059.523-.683-.077.146.096-.057.09.875.324.349.107-.116.532-.087.318-.551-.158-.19-.1.202-.22-.076-.185-.327-.125.065-.033-.304-.073-.172-.23-.183.697-1.537.24.088-.345.832-.113-.242-.326.012-.178.6-.186-3.327.517-.148-.313-.208.446-1.869.367-.073-.226.134-.15.55-.081.337-.363-.884-.466-.496-.375.157-.073-.406-.153.075-.211.36-.128.72.753.246.011.029-.387.18-.132-.03-.445.29-.023.22-.226.52.066.557.838zm0 3l-.146.053-.176.467-.208.077.208-.311 4.278.044-.012-.087-2.011-.27-.007-.073.169-.368 1.138.128-.17.128-.561-.087-.041.021.014.037 2.006.418-.059.523-.683-.076.146.096-.057.088.875.326.349.105-.116.531-.087.319-.551-.159-.19-.097.202-.22-.076-.186-.327-.124.065-.036-.304-.073-.172-.229-.183.699-1.537.238.088-.345.832-.112-.242-.327.012-.178.6-.187-3.327.518-.148-.313-.208.446-1.869.366-.073-.225.134-.15.55-.082.337-.362-.884-.464-.496-.376.157-.072-.406-.153.075-.212.36-.13.72.754.246.01.029-.387.18-.13-.03-.444.29-.025.22-.226.52.066.557.837zm.546 3.147l-.128.046-.158.42-.185.067.185-.279 3.816.04-.013-.077-1.792-.242-.007-.066.15-.329 1.014.116-.15.113-.499-.076-.037.018.012.035 1.787.372-.051.466-.608-.07.13.086-.05.082.779.288.31.096-.102.473-.079.284-.49-.142-.171-.087.181-.198-.067-.163-.294-.112.059-.03-.27-.066-.153-.205-.166.623-1.369.215.078-.31.742-.101-.215-.292.01-.156.534-.167-2.966.46-.132-.279-.186.4-1.666.326-.064-.201.119-.134.489-.073.302-.323-.788-.414-.442-.337.138-.064-.36-.136.067-.189.322-.115.64.673.22.01.025-.346.16-.117-.026-.395.26-.023.195-.2.464.058.496.747zm8.907 14.228c.448-.391 1.426-.197.492.62-1.122.988-1.758 1.501-2.52 2.37.173.156-.49-.369-.556-.48m-4.287 2.181c-1.407-1.3-.258-3.142 1.125-3.825 1.366-.674 2.746-.912 4.135-.44-.783.685-.43.44-1.905.49-.923.028-1.88.363-2.55 1.026-.618.617-.967 1.808-.103 2.391.42.283.948.272 1.4.08.297-.124.352-.602 1.11.06-.984.858-2.126 1.228-3.212.218"/><path d="M37.852 66.59c-2.059 2.678-4.601-1.163-6.123-2.26 1.084-.773 1.027-.165 2.28 1.073.675.666 1.786 1.69 2.823 1.088 1.095-.646.37-1.606-.02-2.132.207-.187.726-.64.722-.64.918.778.834 2.196.318 2.871m-8.242-4.34c.545-.462.917.2 1.313.47-.457.232-.467.5-1.14.11 0 0-.508-.297-.172-.58m33.663-19.13c-.034.013-.31.074-.404.102-1.726.466-2.75 1.204-3.61 2.474-1.185 1.751-1.15 3.74-1.109 4.303 0 .028-1.034 1.25-1.47 1.609l.821-.1c.411-.535.756-.995 1.076-1.415.72-.21 2.331-.81 3.49-2.306.932-1.215 1.299-2.493 1.23-4.31-.003-.054-.017-.3-.024-.358zm-3.43 5.762l-1.166.724.112-.946c2.027-2.342 4.075-4.972 4.075-4.972-.471.916-.962 2.522-3.02 5.194zm5.663 1.418c-1.758-.326-3.001-.102-4.326.668-1.826 1.067-2.653 2.877-2.86 3.4-.011.028-1.475.68-2.019.816l.783.266c.599-.305 1.11-.57 1.58-.812.74.123 2.454.279 4.145-.57 1.366-.69 2.25-1.685 2.973-3.353.021-.05.116-.279.132-.334-.036 0-.312-.068-.408-.082zm-5.176 3.794l-1.363.147.506-.802c2.843-1.235 5.827-2.72 5.827-2.72-.821.62-1.96 1.854-4.97 3.375zm2.721 2.788c-1.586-.823-2.842-.971-4.333-.62-2.056.486-3.377 1.978-3.727 2.42-.018.022-1.608.22-2.17.19l.672.485c.664-.12 1.23-.222 1.75-.318.67.334 2.265.981 4.13.66 1.507-.26 2.643-.956 3.82-2.34.036-.042.192-.232.224-.282-.034-.008-.277-.154-.366-.195zm-6.056 2.123l-1.348-.258.72-.619c3.078-.354 6.366-.905 6.366-.905-.968.354-2.415 1.204-5.738 1.782zm-.267 2.835c-1.334-1.189-2.513-1.644-4.045-1.674-2.113-.036-3.761 1.083-4.21 1.426-.024.018-1.612-.185-2.149-.354l.532.637c.672.048 1.246.089 1.774.122.568.493 1.953 1.515 3.84 1.665 1.523.119 2.794-.274 4.28-1.327.042-.03.241-.176.284-.217-.03-.017-.231-.217-.306-.279zm-6.392.56l-1.243-.582.85-.422c3.07.418 6.392.696 6.392.696-1.024.103-2.637.569-6 .307zm-.917 2.421c-1.167-1.351-2.279-1.952-3.794-2.178-2.09-.308-3.869.587-4.358.87-.026.012-1.575-.392-2.086-.63l.445.7c.66.136 1.225.25 1.744.35.498.563 1.741 1.756 3.592 2.147 1.496.315 2.808.089 4.415-.765.046-.023.263-.142.311-.177-.028-.022-.2-.246-.268-.317zm-6.41-.268l-1.157-.738.898-.306a148.6 148.6 0 006.248 1.513c-1.027-.03-2.688.226-5.988-.47zM9.82 49.999c.04-.562.077-2.552-1.107-4.303-.863-1.27-1.887-2.008-3.612-2.474-.094-.028-.37-.089-.403-.103-.01.057-.023.304-.025.358-.07 1.817.297 3.095 1.23 4.31 1.158 1.495 2.769 2.096 3.49 2.306.319.42.666.88 1.075 1.415l.821.1c-.434-.36-1.468-1.58-1.468-1.61zm-1.694-1.117c-2.057-2.672-2.55-4.278-3.021-5.194 0 0 2.048 2.63 4.077 4.972l.112.946-1.168-.724zm1.524 5.486c-.206-.523-1.035-2.333-2.86-3.4-1.324-.77-2.567-.994-4.326-.669-.096.014-.373.082-.409.082.018.055.113.285.134.334.724 1.668 1.607 2.664 2.973 3.352 1.69.85 3.403.694 4.143.57.471.243.981.508 1.582.813l.783-.266c-.546-.135-2.008-.788-2.02-.816zm-2.01-.274c-3.012-1.52-4.15-2.755-4.97-3.375 0 0 2.984 1.485 5.826 2.72l.508.802-1.363-.147zm5.338 4.587c-.35-.44-1.67-1.933-3.725-2.42-1.493-.35-2.747-.202-4.333.62-.089.042-.332.188-.366.196.032.05.188.24.224.281 1.177 1.385 2.311 2.08 3.82 2.34 1.863.322 3.458-.325 4.13-.66.519.097 1.086.2 1.75.319l.67-.485c-.56.03-2.15-.168-2.17-.19zm-2.002.324c-3.323-.578-4.772-1.428-5.738-1.782 0 0 3.286.551 6.366.905l.72.619-1.348.258zm8.521 2.587c-.45-.343-2.096-1.462-4.21-1.426-1.532.03-2.712.485-4.044 1.673-.076.062-.277.262-.308.28.045.04.244.186.287.216 1.484 1.053 2.756 1.446 4.28 1.327 1.886-.15 3.271-1.172 3.839-1.665.528-.033 1.102-.074 1.772-.122l.532-.637c-.535.17-2.123.372-2.148.354zm-1.862.807c-3.364.262-4.975-.204-5.999-.307 0 0 3.321-.278 6.39-.696l.852.422-1.243.581zm9.069 1.113c-.49-.282-2.27-1.177-4.36-.87-1.515.227-2.627.828-3.793 2.18-.068.07-.242.294-.268.316.048.035.263.154.309.177 1.607.854 2.921 1.08 4.415.765 1.853-.391 3.094-1.584 3.594-2.146.519-.102 1.084-.215 1.742-.35l.445-.701c-.509.238-2.058.642-2.084.63zm-1.743 1.04c-3.302.696-4.96.44-5.989.47 0 0 3.256-.706 6.249-1.513l.898.306-1.158.738z"/><path d="M34.739 60.673l-4.461-.3c-.01-.004-5.897-.545-5.897-.545a.213.213 0 00-.1.013l-1.983.946-1.126-.38 1.074-.949 2.603-.403s9.362.44 9.389.44l.501-1.187c-.025-.151.009-.4-.076-.452l-.242-.128 1.28-.49.633.464-1.595 2.97zm11.77-.605l-1.59.58-1.55-.97c-.036-.017-.957.328-.995.332l-6.32.702.394-1.177 6.765-.573 2.344.393.951.713zm-24.587-26.63c.103-.05-.119-.545-.035-.623.025-.028.05-.44.035-.476-.106-.305-.442-.397-.556-.701.138-.334.277-.676.414-1.006.014-.04.013-.289-.014-.312-.224-.234.796.152.38-.5.265.235-1.157-.805-.99-.659.564.475.773.656.825 1.21.037.42.324.4.649 1.418 0 0-.028 1.629-.052 3.764-.065-.2-.05-.754-.106-.834-.187-.273-.18-.234-.367-.513-.108-.157-.172-.273-.291-.402-.112-.25.021-.084.108-.367zm-6.202 2.128l.311-.407-1.51.092.113.222.619.13.467-.037zm-.387 1.751l1.411.377-.435.631-1.014.093-.695-.185-.514-.585 1.247-.33zm-.605-5.779l.153.42-.19 1.09-.084.064-.005-.514-.601-.044-.13-.521-.436.12-.001.452-.482-.156-.09-.372c-.013 0-.095-.08-.106-.083l-.156-.196c-.025-.014-.075-.16-.075-.16l.107-.1.343.091c.018-.007.508-.009.647-.04l.416.077.265-.158c.016-.003.036-.01.055-.01l.233.003.137.037zm-1.995-.892l.34-.08c.055-.01.218-.09.501 0 .05-.04.142-.022.176-.025l.484.043h.197c.269.007-.076.096.205.106.048 0 .224.062.227.107l-.055.222-.156.206-.052-.087-.236-.119c-.543-.119-.562.093-.667.027l-.416-.11c-.146-.093-.361.222-.608.051l.06-.341zm-.51-2.322l.835.083c.022.013-.248.253-.25.278-.002.024-.087.382-.11.389l-.28.139-.332.25a.563.563 0 01-.222.027l-.036-.237c-.023-.017-.037-.037-.037-.065v-.521a.07.07 0 01.023-.052l.315-.286c.024-.027.065-.027.094-.005zm-1.172 1.52l-.012-.41.074-.74c.002-.038.046-.493.075-.52l.482-.48c.023-.028.439-.078.482-.075.138.008.738-.053.887 0l-.146.356-.215.044c-.077-.024-.315.025-.694 0l-.492.456.066 1.033c0 .014-.112-.002-.114.009l-.217.213-.04.153-.136-.04zm2.87-2.052c.197.076.395.258.564.382-.004-.009.456.098.456.09.032.031.082.243.12.275-.008 0-.073.197-.08.197.039.05.023.002.023.142.106.263.119.726.185.816-.09.03-.514.12-.5.214-.021-.148.046-.662.04-1.014a3.01 3.01 0 01-.115-.327c-.192-.066-.414-.12-.567-.25.013.012.023.028.032.042-.02-.02-.04-.043-.062-.064a.1.1 0 00-.032-.03c.003 0 .009 0 .012.003-.023-.028-.044-.053-.044-.07.023.028-.053-.43-.032-.406zm-3.996 2.383c-.02.04-.469 1.943-.489 1.98-.062.144-.02.452-.108.148 0-.046-.092-.256-.148-.183.03-.26.063-.779.148-.99.11-.262.078-.571.178-.747l.014-.04c.009-.016.027-.048.048-.081.027-.059.052-.107.08-.173l.421-.635c-.024.063-.072.6-.144.72zm7.94-1.268c-.022-.01-.55-.212-.306-.278.027-.007.034-.243.055-.25l.86-.066c.027-.014.057-.007.079.02l.2.225a.069.069 0 01.017.046l.15.609c0 .023-.145.291-.166.305-.023.013-.04-.229-.06-.243l-.275-.09s-.282-.232-.288-.232l-.266-.046zm-2.054 3.887l-.034-1.336c0-.012 0-.02.006-.033l.128-.438c.007-.025.119-.23.314-.247.201-.117.335-.242.39-.333l1.305.278-.39.363c-.3-.152-.464-.173-.666-.112-.01.001-.354-.025-.432-.018-.102.058-.105.174-.207.211l-.11.39.178.17.483-.051c.018-.007.03-.007.045 0l.6.117.134-.016.267-.094.155.07c-.007.017-.025.031-.041.044l.05.167c-.013.009-.093.068-.104.068l-.142.06-.08.24-.07.285-.6-.004.057-.462-.455-.052-.066.544-.315.043-.124.204.04.404-.103.021-.211-.462c-.002-.003-.002-.01-.002-.021zm3.896-3.286l.112.409-.185.147-.185-.222-.253-.252c-.003-.011-.007-.022-.007-.036l-.02-1.149-.517-.314c-.378.028-.626-.011-.7.014l-.21-.06-.108-.35c.15-.052.933.006 1.074 0 .037 0 .344.083.37.11l.519.519c.028.028-.038.517-.038.554l.148.63zm-9.394 6.18c-.126.733.478 1.19.478 1.19-.039.237-.421.349-.55.55.133-.17-.356-.228-.467-.025.153-.242.407-.424.345-.703-.202-.91-.064-.859-.064-1.16 0-.458-.06-.572.01-.662.108-.139.122-.262.16-.39.15-.037.696-.094.718-.122-.082.106-.383.684-.377.81.024.482-.21.283-.253.512zm11.826 2.74c.025.121.006.242-.021.545-.06.722-.475 1.876-.58 1.98-.039-.012-.23-.085-.202-.158.32-.745.037-.86.147-1.646-.306-.482.164-.914.164-1.519l.057-.373c0 .062.081.329.081.409 0 .133.036.007.036.14-.005-.089.07.219.07.139.149.252.214.363.241.471l.005-.023c0 .012 0 .025.002.036zm-4.06-2.84l-.031.309.039.067.917.084-.944.177.01.212-.095.139.663.336-.74-.146-.174.338a.073.073 0 01-.018.035l-.003.011-.005.007-.025.029-.084.186c.007.016-.151.377-.142.496.066.877-.468 1.124-.507 3.057-.003.158.341.421.345.574.007.214-.26.642-.268.799-.006-.063-.032.29-.048.266-.155-.245-.093-.577-.246-.814-.076-.116-.38-.699-.366-.843.05-.553.235-.953.165-1.573l.038-.454c-.025.032-.128.157-.168.164l-.417.032-1.306-.029c-.035 0-.444-.28-.47-.31l-.824-.975-.048-.045-.004-.014-.588-.699a.12.12 0 01-.034-.067s-.02.046-.032-.029l-.427-.018.429-.128c-.002-.007-.004-.012-.004-.02l-.19-.372-.002-.212-.464-.078.477-.036.009-.215c0-.192-.008-.2-.022-.31l-.684-.24.672.065c-.03-.193-.068-.3-.068-.397 0-.027-.08-.297-.156-.548l-.237.232c-.012-.013-.073-.153-.083-.168 0 0-.143-.78-.228-.32l-.34-.848.064.016-.469-.487.057-.583-.037.19-.297-.718.055-.25c-.036-.24-.196-.321.055-.584.117-.121.147-.342.224-.472.059-.094.254.353.254.353 0 .115-.17.401-.17.401l.264 1.133.148.407.33.747s.465.004.46 0l.213.683.638.727-.28.02v.288l-.159.055.005.083.043-.003.007.07.96.09-.046.252-.695-.147c.018.192 0 .348 0 .343h.227l.369.053.016.196-.532.046.158.432.642-.227.064.193-.508.112-.159.118.079.158.165.11.256.04 1.147-.436.03-.749-.645-.249c-.03-.003-.057-.028-.073-.051l-.267-.407c-.005-.006.004-.016 0-.027-.002-.004-.007-.004-.007-.004a.163.163 0 01-.034-.112l.016-1.364.354.34-.077.772 1.919-.084-.034-.805.228-.278.222 1.167c.046.313-.194.768-.194.768.096.094-.338.28-.37.295l-.296.04.05.81.993.384.336-.046.176-.084.11-.112.056-.222-.327-.085-.006-.276.471.167.123-.256-.236.005.032-.277h.249l.085-.276-.004-.033-.634.146.024-.31.64-.055-.103-.52-.273-.028.574-.754-.055-.629c-.002-.016.277-.16.284-.17l.116-.4.227-.344.369.594-.25.583-.028.528c.002.029-.146.23-.167.25l-.277.168-.09.265-.02.429.935-.043-.973.222zm1.674-4.569c.05.121-.052.847-.055.86-.016.06-.194.835-.194.835l-.124 1.077-.36-1.216.33-.695a1.272 1.272 0 00.035-1.02l.089-.195c.005.015.242.132.279.354zm9.645 23.345s-.507.165-.25.667l.002-.004 1.953 1.039.426.193 1.546-.771c-5.27-3.16-7.808-5.393-9.223-7.358l-.217-.327c-.16-.262-1.021-1.762-1.067-3.92-.007-.387-.014-.835-.018-1.311-.014-1.87.034-3.69.055-5.78-.126-.102-.471-.366-.462-.426.023-.192-.135-.61-.11-.806-.168-.257.083-.693-.104-.961-.165-.242-.238-.294-.437-.598-.02-.036-.025-.085-.044-.123-.07-.08-.189.066-.223-.058.007.103-.393-.33-.39-.228.01-.318.307-.41.588-.553a1.23 1.23 0 01.204-.396c-.123-.292-.583-.488-.583-.488a4.268 4.268 0 00-.11-.366c.012-.311-.207-.4-.073-.732-.02-.04.254-.676.256-.585-.521-.273-.043-.315-.477-.77l-.05-.497c-.033-.035-.2-.517-.334-.889-.352-.417-.53-1.223-.588-1.575l-.745-.057c-.482.173-1.407.384-1.762 1.21-.013.054-.201.636-.201.636s-.123.355-.178.405c-.114.098.213.269.147.35 0 0-.517.465-.531.45v.002-.003c-.016-.013-.03-.025-.034-.043-.032-.137-.055-.233-.059-.33l-.005-.017.012-.028c.002-.063.253-.447.253-.447l.249-1.282s.18-1.171.875-1.234l-.107-.44-.85.202a.202.202 0 01-.213-.073l-.43-.56-.504-.062-.124.443c-.02.07.026 1.088-.047 1.106-.072.016-.328-.56-.38-.614l-.19-.672-.18.41a.212.212 0 01-.174.13.205.205 0 01-.192-.099l-.294-.441-.569.201.008.217c0 .014.4.27.364.252.41.196.656.328.909.744.097.163.435.727.329.743.012-.064-1.02-.455-1.035-.49-.118-.32-1.176-.49-1.606-.666l-.68.034-.685.356-1.951 3.099-.97 2.918.32 1.312c.083-.206.115-.334.25-.7-.01-.047.304-.899.288-1.295.073.219.498.443.608.626.064.106.224.638.178.834.002.017-.498.649-.496.66-.004-.008-.367.623-.367.623.008.024-.19.493-.192.518l-.428 2.32c.075.228.482 1.524.482 1.528l.544 1.794.245-.317c.014-.021.048-.007.068-.021.211-.338.242-.663.304-1.302.01-.144-.016-.387.09-.615.006-.103.13-.19.077-.31-.135-.316.317-.602.085-.85-.01-.01.226.214.217.207l-.001.198c.085.092.216.743.056 1.08-.012.21.159 1.094.14 1.34-.028.426-.293.332-.307 1.022l.139 1.44.83-1.223c.146-.146.484-1.383.532-1.346.05.034-.004 2.5 0 2.562l-.366.6.827.519c.346-.669.913-1.752.956-2.442.032-.478.294-1.369.267-1.824-.025-.398.195-.603.16-1.133.003.036.352.791.356.822.026.405-.025.31 0 .718.007.14-.075.558-.116.69-.132.377-.132.44-.201.834-.108.562-.441 1.728-.22 2.432.275.294.442.653.45.66l.45.453.543-.295.445-.352.437-3.31c.038-.042.484 2.619.54 2.611.038 0 .175-.227.232-.327l.52.356.234-.187c.094-.06.235.116.297.201 0 0 .836 1.019.83 1.008l.258-.277.213.336c.475-1.028.253-1.32.335-1.693.103-.528.386-1.132.36-1.666-.024-.53-.083-.905-.13-1.431-.033-.375.335-.728.248-1.092-.535-.631-1.383-1.072-1.126-1.133-.097-.142-.026-.44-.003-.41.2.282.49-.152.69.13.199.279.115.206.354.51.101.13.003.32.108.457.082.097.288.21.345.316.018.025.073.295.085.317-.007-.015-.046.272-.056.26.039.078-.118.152-.144.257-.137.59-.29.462 0 1.035.243.48.263 1.065.115 1.582-.215.746-.009 1.325-.014 2.108l.13-.182.515-.827c.016-.017.1-.583.274-.58.004-.003.059-1.68.33-1.68.061 0 .431 2.463.469 2.51l.298-.8.118.357-.573 1.541-.596-.34-.261.109c-.007.01-1.23.766-1.23.766l-.863.822c-.042.01-.62-.512-.62-.512l-.464-.555-.495-.249-.524.062-.31-.154-1.049.834-.836.586c-.044.03-.307-.31-.307-.31l-1.143-1.14-.164.118.967 7.579c.01.058.13.345.096.391-.034.043-.15.064-.206.071l-1.607.135-.553.86.37.262.382-.56c.018-.027.695-.15.695-.15l.267.271-.667.165-.361.502.277.222.376-.503c.017-.02.352-.073.385-.082l.228-.046.263.242-.585.194-.36.36.221.196 2.362-.973.105-1.43.22-1.496-.649-3.55 1.435-1.785.075 2.445.154 1.606.07 1.808c.139.413 0 1.112 0 1.809l-.01.794c-.492.153-3.209 1.147-3.209 1.147l-.012.272.821.367.08-.486c.01-.053 1.153-.439 1.153-.439l.434.188-1.222.445-.055.473.656.288.057-.47c.005-.051 1.037-.513 1.037-.513l.389.222-1.056.5-.022.465.578.23.304-.39c.015-.023.239-.18.258-.192l1.97-1.157 1.263-8.912-.182-.249.441-.398.447-.38 1.67 2.473-1.749.54-.476 3.884.661.977 2.593 2.031c.078.052 1.972.898 2.073.996.036.035-.066.387-.158.387l-3.14.349a.205.205 0 01-.139-.048l-1.558-1.328-1.278.917-.084.361.722-.528c.054-.039.612-.39.612-.36l.487.55.023.123-.574-.235-1.158.84.308.409.896-.697a.16.16 0 01.185.003l.496.427-.08.219-.416-.168-.722.639.098.156 1.778.391 3.284-.501c.01-.004 1.112-.04 1.12-.04l3.98.348c-.249-.518-.357-.918-.361-.925-.05-.421-.86-1.9-.898-1.894l-.967-1.794-1.097-.692.537.866.812.715.096.464-.576-.178-.277-.222-1.389-1.166-.473-1.229-.288-.347v-.115l.085-.354-.19-.38.816.7 1.44.797 2.004.985c.011.01 1.23.323 1.105.574-.14.281-1.282-.11-1.273-.096zm25.409-.537l-.297.224.556.139.472.583-.36.284-.35-.473a.123.123 0 00-.09-.058l-.529-.144-.282.252.556.194.416.528-.528.25-.5-.5-1.861-.806-.612-1.25.02-1.278.074-1.852.253-1.367v-1.08l-1.18-.702v5.057c0 .02.298 1.677.298 1.695l.425.805c.007.086.31.449.387.473l1.699.658.305.617-.446.253-.32-.539a.133.133 0 00-.078-.076l-.81-.304-.376.224.834.279.36.555-.59.252-.224-.42a.157.157 0 00-.065-.065l-.802-.345-.264.245.806.388.222.334-.563.265-3.15-2.098-1.404-8.169-.765-.228-.603 2.34.937.413.502 3.855-5.004 3.394c-.08.045.054.24.075.33.025.09.08.307.172.314l3.153-.249c.052 0 .151.14.19.105l1.61-1.303 1.529 1.05-.116.319-1.303-.86c-.055-.031-.125-.031-.17.013l-.412.443-.067.288.555-.36 1.14.75-.084.304-1.023-.598c-.085.077-.647.537-.647.537l.04.217.517-.338.784.518-.12.183-1.664.421-2.656-.494c-.01-.004-2.552.395-2.56.395l-3.347.1.204-1.158 1.74-3.043s.063-.213.147-.407l.741-.112-.186.557-.388.777.5-.11.779-.945.832-1.278.336-1.035.02-.01.008-.011.025-.022-.018.007.4-.554-1.41.953-2.306 1.449c-.025.018-.058.302-.073.327l-1.205.73.39.61-.333.111-.308.203-4.8 2.103a.21.21 0 00-.11.253l.11.66-.863-.097-.479-1.054 3.352-1.723c5.471-3.261 8.064-5.438 9.483-7.184.956-1.627 1.19-3.195 1.19-3.899 0-1.691.07-2.303.07-2.303.008.063.434.715.438.806.002.066.192 1.202.25 1.179l.744.313s.649-.683.693-.568l.36.959.275.44c-.098-.405.884-.111.884-.111.059.037.14.713.211.688l1.282-.245s1.018.327 1.051.275l.502-.418.779.223c.07.072.526.506.61.444l1.129-.871 1.41-.667-2.344 8.119c-.007.055-.007.188.043.163.07-.04 1.861.153 1.861.153l.621.833-.397.266-.394-.542a.126.126 0 00-.087-.055l-.434-.066zM52.15 35.658l-.556-.167v-.36l1.525.204-.275.295-.694.028zm-1.084 2.056l.222.556.889.166h.667l.667-.722-1.224-.223-1.221.223zm7.765-3.228c-.288-.135-.552.546-.64.289.007-.06-.22-1.88-.77-2.282.023.102.186 2.221.2 2.276.217.585.43.838.696 1.167.33 1.225.106 1.282.181 1.815 0 0-.018 1.62-.071 1.675-.025-.01-.066.286-.272.816-.055.14-.267-1.024-.36-.931-.513.513-.163 2.064-.193 2.037-.002-.002-.014.013-.021.018-.207-.365-.376-.946-.432-1.56-.018-.135-.171-.714-.278-.94.01.213-.016.875 0 1.126.037.549.016 1.621.07 2.23-.22.366-.152.453-.324.759l-.592-.175c-.132-.978.016-1.156-.182-1.783-.119-.374.272-1.05.205-1.439-.018-.135-.02-.306-.093-.425-.181-.3-.506-.512-.665-.729.1.235.198.466.285.617.233.39-.521 1.515-.326 1.947.305.694.033 1.666.08 2.495 0 0 .258.12-.13.366l-.303.706-1.32-.014c-.128-.057-.217.08-.275.128l-.263.493-.815-.468c-.188-.094-.005-.377-.071-.37-.002 0-.096-.329-.096-.329.025-.531-.027-.44.02-1.129.01-.196-.272-.612-.347-.772-.09-.199-.107-1.195-.03-1.694-.086.283-.518 1.01-.514 1.2.005.22.31 1.287.341 1.506.045.33-.023.484.064 1.302.002.023-.391.617-.379.807l-.905-.464.084-1.213-.49-1.198c-.061-.059.065 2.318-.015 2.35l-.297.427-.822-.455-.19-1.086c-.07-.052-.15.065-.217.051-.073-.014-.32-.021-.371.029 0 0-.669-1.286-.65-1.72.02-.492.146-.859.187-1.325.032-.38-.36-.745-.245-1.114.043-.056.078-.114.123-.159.101-.128.115-.108.224-.242.245-.314-.148.484.167.034.112-.153-.388-.782-.46-.677 0 0 .175.016-.214.588-.114-.208-.525.036-.63-.08.095.208.18.623.276.822a1.236 1.236 0 000 .31c.142.59.219.481-.07 1.06-.241.474.182.99.328 1.503.212.727.142.722.016.895l-.24-.137c-.052-.091-.38-.585-.48-.548l-.283-.192s-.108-1.37-.249-1.36l-.505.523-.044-.498c.04-.166.046-.182.122-.477a.781.781 0 01-.193.215l-.03-5.707c.42-.38.556-1.428.574-1.459-.029.048-.603.596-.59.529l-.027-2.742-.002-.025-.01-.09.705-1.034v-.503c.1.051.254-.406.347-.361-.037-.059-.055-.02.1-.12.007.23.165.404.095.404-.028 0-.074.705-.051.717.19.123-.085.645-.029.784-.003-.195.443-.581.276-.729-.13.213.274-.603.413-.583l-.148-.987-.062-.3.414-1.13s1.307-.718 1.339-.77c.036-.055.542-.398.542-.398l.44-.082c.058 0 .113.088.19.23l.368.375c.227.498.455-.516.432.22-.002.047.63.342.635.404.066-.018.547.646.547.562 0-.429-.634-1.127-.691-1.378.014.01-.788-.45-.852-.516l.83-.476.528.528c.084.05.603.558.67.489l-.335-1.268.128-.124c.064.053.332.368.407.334l.535.06.093.073c.05.096-.14.048-.086.146-.009.436.12.978 0 1.062-.028.023.423.737.425.771.055-.222-.057-.832 0-.832l.22.002c.027-.062-.054-.573-.026-.63l-.055-.113c.06.05.139.06.213.032l.646-.296.222.415c.025.058-.878 1.37-.823 1.37l1.113-.735 1.447.22c.004.021.78 1.527.793 1.545l1.421 2.927s.263 1.229.267 1.254l.105 1.338zm-13.027-1.67c.01-.056.871.397.871.342 0-.112-.586-.515-.389-.723.023-.02-.24-1.055-.222-1.083-.116.087-.059.52-.17.627-.125.12-.045.715-.09.838zm.276 4.782c.295-.432.32-.764.48-1.714.304-.688.279-1.122.279-1.122s-.427.28-.45.368c-.098.406-.302.688-.343.925-.187.427-.11.672-.386 1.461-.158.45-.057.913-.128 1.382 0 0 .18-.757.548-1.3zm8.3-9.634l.176.171.215.025c.077-.028.212-.107.564-.018l.494.452.041 1.01c0 .009.004.023.009.03l.13.231.128.137.044-.112-.032-.318.107-.623c-.002-.033-.094-.636-.121-.661l-.54-.54c-.029-.025-.504-.004-.541 0-.139.007-.52.163-.674.216zm1.133 4.38l.138.165.167-.138.194-.278-.044.174c.007-.028.208-.78.208-1.063a.77.77 0 00-.164-.44c-.083-.118.084-.061.057-.145l-.219.013c0 .122-.245.053-.177.165.074.11.07.432.07.564 0 .26-.23.983-.23.983zm-.079-3.832l-.263-.146c-.021-.01-.046-.014-.066-.003l-.633.304c-.028.01-.044.042-.042.07 0 .028.018.05.044.061l.383.155.405.26a.072.072 0 00.075 0l.097-.052c.024-.01.038-.04.038-.066v-.52a.075.075 0 00-.038-.063zm-2.368 1.922c-.023 0-.26.311-.272.372-.009.046-.078.05-.082.094l-.046.605.112.026.231-.263.029-.222c.083-.139.092-.153.195-.222l.61.167c-.021 0 .36-.153.382-.153 0 0 .151.186.175.208l.279-.349s-.548-.282-.829-.199c-.046-.035-.236-.057-.267-.06h-.309l-.208-.004zm1.342 1.732c.013 0 .015.04.024.037l.156-.13c.025-.014.06-.051.06-.051l.004-.238-.338.085c-.018-.003-.418-.133-.558-.169l-.37.084-.263-.153a.09.09 0 00-.052-.014h-.23l-.136.042-.028 1.277.222-.028h.25l.166-.084v-.5l.612.084-.056.416.417-.027.12-.631zm-1.995-3.68c0-.03.217.695.208.727l.278-.223c.055.112.213-.492.334-.63.103-.124-.016-.316-.098-.406.034.076.05.147.002.199-.39.455-.724.387-.724.332zm-2.05-.33c.013-.003.062.052.11.12.006.016.024.04.043.067h-.009c.01.007.016.016.025.023v.004h.004l.048.048-.034-.038c.123.112.101.429.236.472.144.398-.06.352.057.75.011.037.443-.258.452-.222-.055-.196-.167-.64-.292-.802.004 0 .007.003.011.003a.755.755 0 01-.08-.08c.004.011.012.022.014.032-.13-.112.1.102-.04.055-.015-.024-.1-.211-.122-.24a.772.772 0 00-.138-.33c-.06-.079-.272-.12-.281-.292-.02.01-.166-.15-.196-.139-.131.038.32.532.192.57zm-.462 2.403l-.189.24-.24.252.294-.117c.188-.027.59-.055.66-.055.113-.075.805.067.816.108l.176.596-.352.169-.384-.002a1.095 1.095 0 00-.187-.018l-.457.01-.454.033c.01.014.06.24.06.24.012.007.255.034.255.034l-.002.238.114.336.388.09v-.444l.667.027-.056.418.443.026s.306.205.306.196l-.089-1.357a2.3 2.3 0 00-.01-.192l.017-.258c-.01-.035.006-.428-.026-.442-.02-.015-.763-.374-.81-.352-.047.028-.993.23-.94.224zm-2.052-.79c-.002-.053.297 0 .329.034l-.144-1.195.494-.455c.448.014.816.032.866.051l.393-.11.11-.114c-.051-.051-.99-.268-1.054-.268a2.373 2.373 0 00-.445.139l-.36.25c-.025.023-.39.295-.39.333l-.244.953.168.61.277-.228zm.903 2.769s-.078-.155-.138-.223l-.166-.501-.162-.379c-.145-.295.272-1.012.217-1.012l-.498.386c-.003.011-.067.167-.103.395-.048.12-.087.286-.028.427l.039.105c.004.04.021.08.03.115.01.032.016.066.025.098.007.014.01.034.018.048.02.09.027.155.027.155l.067.315-.032.318.137-.21.071.523.496-.56zm-.11-3.285l.4-.241c.004 0 .358-.237.358-.237a.068.068 0 00.03-.066c0-.024-.018-.046-.043-.057l-.681-.275a.082.082 0 00-.08.014l-.203.228a.063.063 0 00-.02.044l-.019.612c0 .025.013.048.034.066a.08.08 0 00.068 0s.154-.084.156-.088zm7.925 2.02l-.542 1.073.02.519-.513.327-.291.864-.175.24c.004-.007-.393.4-.423.463l-.107.213.228.002.016.387-.009.228-.649-.014.027.25.583-.028-.06.308s.01-.036.005-.002l-.416-.029.007.226.37-.009c-.025.139.01.183-.016.34l-.557-.112-.026.25.396.113c-.005.024.037-.018.034 0l-.48.36-.26.036-1.275-.48.029-.724.716-.225a.13.13 0 00.073-.06l.263-.403c.008-.007 0-.014.002-.021.002-.004.01-.004.01-.004a.163.163 0 00.033-.11l-.153-1.622-.25.251v1.028l-1.64-.11.083-1.057-.277-.222-.249 1.718c-.007.043.04.142.046.155l.192.357a.16.16 0 00.073.062l.66.263-.055.75-1.236.468-.349-.05-.448-.27.077.032.821-.162-.046-.224-.875.26-.083-.36h.583l-.034-.248-.603.044-.117-.485.005-.075 1.014.231.012-.298-1.027-.112.064-.523.279-.029-.386-.352-.434-.593.027.22-.107-.1-.037-.421c.001-.018.055-.071.05-.089l-.301-.704-.096.044-.203.233.12.491-.042.535c.038.075.112.08.134.102l.519.227.06.503.047.427-.592.002.597.139.032.352-.012.306-.553.064.556.11-.012.05.208.409-.39.208.472-.055.081.168.07.084.377.503.245.391.245.248.255.337c.02.027.055.048.094.052l.416.044c.032.004.066.018.098.018h.09l.52.05.39.021.563-.078c-.09.123-.189.274-.235.365.013-.023-.084.866-.084.866.14.222.24.835.24.89.107-.32.303.125.345.217.041-.009.068-.592.032-.73-.081-.303-.213-.51-.213-.863 0-.293.132-.498.194-.612.043-.02.176-.618.194-.638l.483-.555.052-.051.002-.014.595-.705a.196.196 0 00.03-.062l.09-.144.665.03-.582-.225.05-.232-.007-.222.595-.098-.444-.087.057-.083c0-.13-.007-.16 0-.253l.665-.16-.722-.034c.03-.256.044-.321.044-.432 0-.026.052-.146.13-.394l.075-.33a.09.09 0 00.03-.031l.277-.175c0-.007.038-.007.168-.334l.288-.231.215-.782.137-.285.053-.734v-.568zm.989 5.536c-.054-.239-.571-.011-.788-.447-.059-.106-.105-.265-.071-.393-.01.038-.084.066-.093.107l-.03.036c-.064.25-.012.34-.08.595-.028.114.639.37.724.479.156.202.007.839.071 1.084.068.28.162.33.11.623.006-.043.087-.071.096-.116.04-.231.126-.834.071-1.063-.106-.434.13-.327-.01-.905zm.53-4.73c-.032-.254-.304-.589-.39-.795-.11-.265-.772-1.117-.871-1.294.395.963.55 1.358.816 2 0-.044.39.018.445.089z"/></g></svg>