<svg xmlns="http://www.w3.org/2000/svg" xmlns:xlink="http://www.w3.org/1999/xlink" width="1366" height="443" viewBox="0 0 1366 443">
    <defs>
        <path id="0fm3lpc4ua" d="M127 29c-10.664-6.54-22.894-11.545-36.166-14.598C81.204 12.187 71.024 11 60.496 11 38.114 11 17.308 16.365 0 25.567"/>
        <path id="2tzjwt5d0b" d="M125 29c-10.496-6.54-22.533-11.545-35.596-14.598C79.925 12.187 69.906 11 59.544 11 37.514 11 17.035 16.365 0 25.567"/>
        <path id="8h5maewisc" d="M71 88c-7.27-5.814-15.607-10.263-24.655-12.976C39.78 73.055 32.841 72 25.664 72 15.49 72 7.27 72.978 1 74.933"/>
        <path id="dl3w77n80d" d="M128 111c-10.328-4.724-22.173-8.338-35.027-10.543C83.646 98.857 73.787 98 63.591 98 41.914 98 21.763 101.875 5 108.52"/>
        <path id="yrbdm9nvpe" d="M131 78.447c-7.305-5.775-15.683-10.195-24.775-12.89-6.597-1.956-13.57-3.004-20.783-3.004-15.332 0-29.586 4.738-41.442 12.863"/>
        <path id="ly607v1erf" d="M71 88c-7.27-5.814-15.607-10.263-24.655-12.976C39.78 73.055 32.841 72 25.664 72 15.49 72 7.27 72.978 1 74.933"/>
        <path id="vh3rtzc0tg" d="M128 111c-10.328-4.724-22.173-8.338-35.027-10.543C83.646 98.857 73.787 98 63.591 98 41.914 98 21.763 101.875 5 108.52"/>
        <path id="mb4b0uhewh" d="M131 78.447c-7.305-5.775-15.683-10.195-24.775-12.89-6.597-1.956-13.57-3.004-20.783-3.004-15.332 0-29.586 4.738-41.442 12.863"/>
        <path id="f0r2hr9b6i" d="M125 20.564C114.504 13.25 102.467 7.654 89.404 4.24 79.925 1.764 69.906.436 59.544.436c-22.03 0-42.509 6-59.544 16.289"/>
        <path id="dw5tf1x22j" d="M125 20.564C114.504 13.25 102.467 7.654 89.404 4.24 79.925 1.764 69.906.436 59.544.436c-22.03 0-42.509 6-59.544 16.289"/>
        <path id="m38s5amd0k" d="M70.352 19.16c-5.792-2.965-12.069-5.269-18.722-6.81-7.398-1.715-15.262-2.487-23.44-2.181-11.593.434-21.004 1.775-28.233 4.024"/>
        <path id="hoa0yuxlbl" d="M148 18c-8.397-5.814-18.026-10.263-28.477-12.976C111.94 3.055 103.925 2 95.635 2 78.01 2 61.628 6.77 48 14.948"/>
        <path id="8c18c95qvm" d="M171.352 431.16c-5.792-2.965-12.069-5.269-18.722-6.81-7.398-1.715-15.262-2.487-23.44-2.181-11.593.434-21.004 1.775-28.233 4.024"/>
        <path id="qzpvl0c94n" d="M249 430c-8.397-5.814-18.026-10.263-28.477-12.976-7.583-1.969-15.598-3.024-23.888-3.024-17.624 0-34.007 4.77-47.635 12.948"/>
    </defs>
    <g fill="none" fill-rule="evenodd">
        <g>
            <g transform="translate(-116 -877) translate(115 878)">
                <g stroke="#750E68" stroke-width="4.05" transform="rotate(90 43 53.5)">
                    <path stroke-linecap="round" stroke-linejoin="round" d="M31.05.675l-.093 66.1c-.004 2.61-2.121 4.725-4.732 4.725-2.281 0-4.13-1.85-4.13-4.13 0-.185.012-.37.036-.553" transform="rotate(-180 26.275 36.087)"/>
                    <rect width="8.1" height="20.25" x="2.025" y="52.65" rx="4.05" transform="rotate(-180 6.075 62.775)"/>
                    <path stroke-linecap="round" d="M6.075 49.95L6.075 0M43.875 8.1L43.875 0M53.325 16.2L53.325 8.1M43.875 29.25L43.875 21.15M53.325 40.05L53.325 31.95M43.875 50.4L43.875 42.3M53.325 62.55L53.325 54.45M43.875 71.55L43.875 63.45"/>
                </g>
                <g stroke="#750E68" stroke-width="4.05" transform="rotate(90 230.5 475)">
                    <path stroke-linecap="round" stroke-linejoin="round" d="M31.05.675l-.093 66.1c-.004 2.61-2.121 4.725-4.732 4.725-2.281 0-4.13-1.85-4.13-4.13 0-.185.012-.37.036-.553" transform="rotate(-180 26.275 36.087)"/>
                    <rect width="8.1" height="20.25" x="2.025" y="52.65" rx="4.05" transform="rotate(-180 6.075 62.775)"/>
                    <path stroke-linecap="round" d="M6.075 49.95L6.075 0M43.875 8.1L43.875 0M53.325 16.2L53.325 8.1M43.875 29.25L43.875 21.15M53.325 40.05L53.325 31.95M43.875 50.4L43.875 42.3M53.325 62.55L53.325 54.45M43.875 71.55L43.875 63.45"/>
                </g>
                <g transform="translate(877 8)">
                    <ellipse cx="63.85" cy="72.4" stroke="#750E68" stroke-width="4.05" rx="12.825" ry="8.775" transform="matrix(-1 0 0 1 127.7 0)"/>
                    <path stroke="#750E68" stroke-width="4.05" d="M49 74.556V56.32c0-8.268 6.649-14.97 14.85-14.97S78.7 48.052 78.7 56.32V75.1"/>
                    <path stroke="#750E68" stroke-linecap="square" stroke-width="4.05" d="M49.273 71.725L77.077 71.725"/>
                    <path stroke="#750E68" stroke-linecap="square" stroke-width="1.35" d="M63.175 73.075L63.175 73.075"/>
                    <path fill="#750E68" d="M38.625 18.825H79.625V22.875H38.625z" transform="rotate(90 59.125 20.85)"/>
                    <path fill="#750E68" d="M49.425 18.825H90.425V22.875H49.425z" transform="rotate(90 69.925 20.85)"/>
                    <use stroke="#750E68" stroke-width="4.05" transform="rotate(-180 63.5 20)" xlink:href="#0fm3lpc4ua"/>
                </g>
                <g transform="translate(125 228)">
                    <ellipse cx="62.5" cy="72" stroke="#750E68" stroke-width="4.05" rx="12.475" ry="8.975" transform="matrix(-1 0 0 1 125 0)"/>
                    <path stroke="#750E68" stroke-width="4.05" d="M48 74.452V56.08C48 47.75 54.492 41 62.5 41S77 47.752 77 56.08V75"/>
                    <path stroke="#750E68" stroke-linecap="square" stroke-width="4.05" d="M48.269 71.5L75.731 71.5"/>
                    <path stroke="#750E68" stroke-linecap="square" stroke-width="1.35" d="M62.5 73.5L62.5 73.5"/>
                    <path fill="#750E68" d="M38 19L79 19 79 23 38 23z" transform="rotate(90 58.5 21)"/>
                    <path fill="#750E68" d="M48 19L89 19 89 23 48 23z" transform="rotate(90 68.5 21)"/>
                    <use stroke="#750E68" stroke-width="4.05" transform="rotate(-180 62.5 20)" xlink:href="#2tzjwt5d0b"/>
                </g>
                <g stroke="#750E68" stroke-width="4.05">
                    <g>
                        <path d="M56.659 2.025c1.88 4.35 4.943 8.07 8.784 10.752 4.11 2.87 9.11 4.554 14.503 4.554 4.18 0 8.122-1.011 11.598-2.802h0l5.75 10.606c-8.313 6.684-13.634 16.94-13.634 28.44 0 10.368 4.326 19.727 11.272 26.366h0L85.686 91.78c-4.039-1.99-8.584-3.11-13.391-3.11-7.087 0-13.607 2.432-18.771 6.506h0-6.07c-5.165-4.074-11.684-6.506-18.771-6.506-5.148 0-9.996 1.283-14.243 3.546h0L5.035 80.174c7.09-6.653 11.518-16.109 11.518-26.6 0-11.654-5.466-22.033-13.974-28.708h0l5.44-10.683c3.631 2.006 7.806 3.148 12.247 3.148 5.393 0 10.393-1.684 14.503-4.554 3.841-2.683 6.904-6.402 8.785-10.752h0z" transform="translate(515 113)"/>
                        <path stroke-linecap="square" d="M29.637 38.709L27 31.05" transform="translate(515 113)"/>
                        <path stroke-linecap="square" d="M33.687 57.044L32.699 54.175 31.05 49.385" transform="translate(515 113) rotate(19 32.369 53.215)"/>
                        <path stroke-linecap="square" d="M71.55 38.709L68.913 31.05" transform="translate(515 113) matrix(-1 0 0 1 140.463 0)"/>
                        <path stroke-linecap="square" d="M67.5 57.044L66.512 54.175 64.863 49.385" transform="translate(515 113) scale(-1 1) rotate(19 0 -342.27)"/>
                    </g>
                    <path stroke-linecap="square" d="M28.287 75.159L27.299 72.29 25.65 67.5" transform="translate(515 113) rotate(46 26.969 71.33)"/>
                    <path stroke-linecap="square" d="M72.9 75.159L71.912 72.29 70.263 67.5" transform="translate(515 113) scale(-1 1) rotate(46 0 -97.306)"/>
                </g>
                <g stroke="#750E68" stroke-width="4.05" transform="rotate(90 363.5 713)">
                    <rect width="63.45" height="58.05" stroke-linecap="round" rx="8.1"/>
                    <path stroke-linecap="square" d="M.675 33.075L23.625 33.075M39.825 33.075L62.775 33.075"/>
                    <path stroke-linecap="round" stroke-linejoin="round" d="M31.725 39.825L31.725 7.425"/>
                </g>
                <g stroke="#750E68" stroke-width="4">
                    <path d="M63.568 2.292c3.092 1.01 5.775 2.914 7.742 5.402 2.172 2.749 3.467 6.213 3.467 9.978 0 4.225-1.632 8.072-4.303 10.954-3.084 3.327-7.553 5.37-12.5 5.23h0v26.143c0 4.962-2.09 9.452-5.459 12.703-3.395 3.276-8.087 5.297-13.266 5.297-4.403 0-8.453-1.46-11.655-3.913-9.234-8.033-14.91-19.787-14.91-32.855 0-6.836 1.552-13.313 4.326-19.1 2.48-1.084 5.167-3.127 7.458-5.936 2.223-2.724 3.65-5.657 4.245-8.243l.014-.064.236.119c3.732 1.827 8.187 2.93 12.988 3.012l.578.005c8.941 0 16.705-3.55 21.039-8.732z" transform="translate(1264 31)"/>
                    <path d="M47.651 13.264c-9.242.037-16.765 7.56-16.803 16.803" transform="translate(1264 31) rotate(-135 39.25 21.665)"/>
                    <path d="M47.651 64.443v-5.622c0-3.645-4.012-6.6-8.962-6.6s-8.961 2.955-8.961 6.6v5.622H47.65z" transform="translate(1264 31)"/>
                    <path d="M36.449 25.554v26.667h5.601V25.554" transform="translate(1264 31)"/>
                    <path stroke-linecap="round" stroke-linejoin="round" d="M27.487 6.665c-6.721-4.444-13.443-2.222-20.164 6.667C-2.76 26.665-5 51.11 17.405 63.332" transform="translate(1264 31)"/>
                </g>
                <g>
                    <path stroke="#750E68" stroke-width="4.05" d="M34.926 16.539l10.299 12.41v29.776h-21.6v-30.41l11.301-11.776zM13.326 16.539l10.299 12.41v29.776h-21.6v-30.41l11.301-11.776zM56.526 16.539l10.299 12.41v29.776h-21.6v-30.41l11.301-11.776zM78.126 16.539l10.299 12.41v29.776h-21.6v-30.41l11.301-11.776z" transform="translate(271 45)"/>
                    <path fill="#750E68" d="M8.1 45.9H12.149999999999999V56.7H8.1zM14.85 33.75H18.9V40.5H14.85zM29.7 45.9H33.75V56.7H29.7zM36.45 33.75H40.5V40.5H36.45zM51.3 45.9H55.349999999999994V56.7H51.3zM72.9 45.9H76.95V56.7H72.9zM58.05 33.75H62.099999999999994V40.5H58.05zM79.65 33.75H83.7V40.5H79.65zM35.1 13.5H56.7V17.55H35.1zM13.5 13.5H35.1V17.55H13.5zM56.7 13.5H68.85000000000001V17.55H56.7z" transform="translate(271 45)"/>
                    <path fill="#750E68" d="M66.15 13.5H78.30000000000001V17.55H66.15z" transform="translate(271 45)"/>
                    <path fill="#750E68" d="M18.225 12.825L27.675 12.825 33.075 18.225 18.225 18.225z" transform="translate(271 45) rotate(90 25.65 15.525)"/>
                    <path fill="#750E68" d="M39.825 12.825L49.275 12.825 54.675 18.225 39.825 18.225z" transform="translate(271 45) rotate(90 47.25 15.525)"/>
                    <path fill="#750E68" d="M60.075 12.825L69.525 12.825 74.925 18.225 60.075 18.225z" transform="translate(271 45) rotate(90 67.5 15.525)"/>
                    <path stroke="#750E68" stroke-width="4.05" d="M33.75 4.05C33.75 1.813 31.937 0 29.7 0s-4.05 1.813-4.05 4.05M33.75 4.05c0 2.237 1.813 4.05 4.05 4.05s4.05-1.813 4.05-4.05M55.35 4.05C55.35 1.813 53.537 0 51.3 0s-4.05 1.813-4.05 4.05M55.35 4.05c0 2.237 1.813 4.05 4.05 4.05s4.05-1.813 4.05-4.05M76.95 4.05C76.95 1.813 75.137 0 72.9 0s-4.05 1.813-4.05 4.05M76.95 4.05c0 2.237 1.813 4.05 4.05 4.05s4.05-1.813 4.05-4.05" transform="translate(271 45)"/>
                </g>
                <g>
                    <path stroke="#750E68" stroke-width="4.05" d="M34.926 16.539l10.299 12.41v29.776h-21.6v-30.41l11.301-11.776zM13.326 16.539l10.299 12.41v29.776h-21.6v-30.41l11.301-11.776zM56.526 16.539l10.299 12.41v29.776h-21.6v-30.41l11.301-11.776zM78.126 16.539l10.299 12.41v29.776h-21.6v-30.41l11.301-11.776z" transform="translate(880 265)"/>
                    <path fill="#750E68" d="M8.1 45.9H12.149999999999999V56.7H8.1zM14.85 33.75H18.9V40.5H14.85zM29.7 45.9H33.75V56.7H29.7zM36.45 33.75H40.5V40.5H36.45zM51.3 45.9H55.349999999999994V56.7H51.3zM72.9 45.9H76.95V56.7H72.9zM58.05 33.75H62.099999999999994V40.5H58.05zM79.65 33.75H83.7V40.5H79.65zM35.1 13.5H56.7V17.55H35.1zM13.5 13.5H35.1V17.55H13.5zM56.7 13.5H68.85000000000001V17.55H56.7z" transform="translate(880 265)"/>
                    <path fill="#750E68" d="M66.15 13.5H78.30000000000001V17.55H66.15z" transform="translate(880 265)"/>
                    <path fill="#750E68" d="M18.225 12.825L27.675 12.825 33.075 18.225 18.225 18.225z" transform="translate(880 265) rotate(90 25.65 15.525)"/>
                    <path fill="#750E68" d="M39.825 12.825L49.275 12.825 54.675 18.225 39.825 18.225z" transform="translate(880 265) rotate(90 47.25 15.525)"/>
                    <path fill="#750E68" d="M60.075 12.825L69.525 12.825 74.925 18.225 60.075 18.225z" transform="translate(880 265) rotate(90 67.5 15.525)"/>
                    <path stroke="#750E68" stroke-width="4.05" d="M33.75 4.05C33.75 1.813 31.937 0 29.7 0s-4.05 1.813-4.05 4.05M33.75 4.05c0 2.237 1.813 4.05 4.05 4.05s4.05-1.813 4.05-4.05M55.35 4.05C55.35 1.813 53.537 0 51.3 0s-4.05 1.813-4.05 4.05M55.35 4.05c0 2.237 1.813 4.05 4.05 4.05s4.05-1.813 4.05-4.05M76.95 4.05C76.95 1.813 75.137 0 72.9 0s-4.05 1.813-4.05 4.05M76.95 4.05c0 2.237 1.813 4.05 4.05 4.05s4.05-1.813 4.05-4.05" transform="translate(880 265)"/>
                </g>
                <g>
                    <path stroke="#750E68" stroke-width="4.05" d="M34.926 16.539l10.299 12.41v29.776h-21.6v-30.41l11.301-11.776zM13.326 16.539l10.299 12.41v29.776h-21.6v-30.41l11.301-11.776zM56.526 16.539l10.299 12.41v29.776h-21.6v-30.41l11.301-11.776zM78.126 16.539l10.299 12.41v29.776h-21.6v-30.41l11.301-11.776z" transform="translate(366.4 21)"/>
                    <path fill="#750E68" d="M8.1 45.9H12.149999999999999V56.7H8.1zM14.85 33.75H18.9V40.5H14.85zM29.7 45.9H33.75V56.7H29.7zM36.45 33.75H40.5V40.5H36.45zM51.3 45.9H55.349999999999994V56.7H51.3zM72.9 45.9H76.95V56.7H72.9zM58.05 33.75H62.099999999999994V40.5H58.05zM79.65 33.75H83.7V40.5H79.65zM35.1 13.5H56.7V17.55H35.1zM13.5 13.5H35.1V17.55H13.5zM56.7 13.5H68.85000000000001V17.55H56.7z" transform="translate(366.4 21)"/>
                    <path fill="#750E68" d="M66.15 13.5H78.30000000000001V17.55H66.15z" transform="translate(366.4 21)"/>
                    <path fill="#750E68" d="M78.3 13.5H90.45V17.55H78.3z" transform="translate(366.4 21)"/>
                    <path fill="#750E68" d="M18.225 12.825L27.675 12.825 33.075 18.225 18.225 18.225z" transform="translate(366.4 21) rotate(90 25.65 15.525)"/>
                    <path fill="#750E68" d="M39.825 12.825L49.275 12.825 54.675 18.225 39.825 18.225z" transform="translate(366.4 21) rotate(90 47.25 15.525)"/>
                    <path fill="#750E68" d="M60.075 12.825L69.525 12.825 74.925 18.225 60.075 18.225z" transform="translate(366.4 21) rotate(90 67.5 15.525)"/>
                    <path fill="#750E68" d="M81.675 12.825L91.125 12.825 96.525 18.225 81.675 18.225z" transform="translate(366.4 21) rotate(90 89.1 15.525)"/>
                    <path stroke="#750E68" stroke-width="4.05" d="M33.75 4.05C33.75 1.813 31.937 0 29.7 0s-4.05 1.813-4.05 4.05M33.75 4.05c0 2.237 1.813 4.05 4.05 4.05s4.05-1.813 4.05-4.05M55.35 4.05C55.35 1.813 53.537 0 51.3 0s-4.05 1.813-4.05 4.05M55.35 4.05c0 2.237 1.813 4.05 4.05 4.05s4.05-1.813 4.05-4.05M76.95 4.05C76.95 1.813 75.137 0 72.9 0s-4.05 1.813-4.05 4.05M76.95 4.05c0 2.237 1.813 4.05 4.05 4.05s4.05-1.813 4.05-4.05" transform="translate(366.4 21)"/>
                    <path stroke="#750E68" stroke-width="4.05" d="M55.35 4.05C55.35 1.813 53.537 0 51.3 0s-4.05 1.813-4.05 4.05M55.35 4.05c0 2.237 1.813 4.05 4.05 4.05s4.05-1.813 4.05-4.05" transform="translate(366.4 21)"/>
                </g>
                <g>
                    <path stroke="#750E68" stroke-width="4.05" d="M34.926 16.539l10.299 12.41v29.776h-21.6v-30.41l11.301-11.776zM13.326 16.539l10.299 12.41v29.776h-21.6v-30.41l11.301-11.776zM56.526 16.539l10.299 12.41v29.776h-21.6v-30.41l11.301-11.776zM78.126 16.539l10.299 12.41v29.776h-21.6v-30.41l11.301-11.776z" transform="translate(975.4 241)"/>
                    <path fill="#750E68" d="M8.1 45.9H12.149999999999999V56.7H8.1zM14.85 33.75H18.9V40.5H14.85zM29.7 45.9H33.75V56.7H29.7zM36.45 33.75H40.5V40.5H36.45zM51.3 45.9H55.349999999999994V56.7H51.3zM72.9 45.9H76.95V56.7H72.9zM58.05 33.75H62.099999999999994V40.5H58.05zM79.65 33.75H83.7V40.5H79.65zM35.1 13.5H56.7V17.55H35.1zM13.5 13.5H35.1V17.55H13.5zM56.7 13.5H68.85000000000001V17.55H56.7z" transform="translate(975.4 241)"/>
                    <path fill="#750E68" d="M66.15 13.5H78.30000000000001V17.55H66.15z" transform="translate(975.4 241)"/>
                    <path fill="#750E68" d="M78.3 13.5H90.45V17.55H78.3z" transform="translate(975.4 241)"/>
                    <path fill="#750E68" d="M18.225 12.825L27.675 12.825 33.075 18.225 18.225 18.225z" transform="translate(975.4 241) rotate(90 25.65 15.525)"/>
                    <path fill="#750E68" d="M39.825 12.825L49.275 12.825 54.675 18.225 39.825 18.225z" transform="translate(975.4 241) rotate(90 47.25 15.525)"/>
                    <path fill="#750E68" d="M60.075 12.825L69.525 12.825 74.925 18.225 60.075 18.225z" transform="translate(975.4 241) rotate(90 67.5 15.525)"/>
                    <path fill="#750E68" d="M81.675 12.825L91.125 12.825 96.525 18.225 81.675 18.225z" transform="translate(975.4 241) rotate(90 89.1 15.525)"/>
                    <path stroke="#750E68" stroke-width="4.05" d="M33.75 4.05C33.75 1.813 31.937 0 29.7 0s-4.05 1.813-4.05 4.05M33.75 4.05c0 2.237 1.813 4.05 4.05 4.05s4.05-1.813 4.05-4.05M55.35 4.05C55.35 1.813 53.537 0 51.3 0s-4.05 1.813-4.05 4.05M55.35 4.05c0 2.237 1.813 4.05 4.05 4.05s4.05-1.813 4.05-4.05M76.95 4.05C76.95 1.813 75.137 0 72.9 0s-4.05 1.813-4.05 4.05M76.95 4.05c0 2.237 1.813 4.05 4.05 4.05s4.05-1.813 4.05-4.05" transform="translate(975.4 241)"/>
                    <path stroke="#750E68" stroke-width="4.05" d="M55.35 4.05C55.35 1.813 53.537 0 51.3 0s-4.05 1.813-4.05 4.05M55.35 4.05c0 2.237 1.813 4.05 4.05 4.05s4.05-1.813 4.05-4.05" transform="translate(975.4 241)"/>
                </g>
                <g>
                    <path stroke="#750E68" stroke-width="4.05" d="M0.375 28.217L13.161 13.5 25.375 28.217 38.161 13.5 50.375 28.217 63.161 13.5 75.375 28.217" transform="translate(304.057 9.052)"/>
                    <path fill="#750E68" d="M51.075 13.5H62.075V17.5H51.075z" transform="translate(304.057 9.052)"/>
                    <path fill="#750E68" d="M26.075 13.5H38.225V17.55H26.075z" transform="translate(304.057 9.052)"/>
                    <path fill="#750E68" d="M38.225 13.5H50.375V17.55H38.225z" transform="translate(304.057 9.052)"/>
                    <path fill="#750E68" d="M45 12.825L54.45 12.825 59.85 18.225 45 18.225z" transform="translate(304.057 9.052) rotate(90 52.425 15.525)"/>
                    <path fill="#750E68" d="M20 12.825L29.45 12.825 34.85 18.225 20 18.225z" transform="translate(304.057 9.052) rotate(90 27.425 15.525)"/>
                    <path stroke="#750E68" stroke-width="4.05" d="M61.875 4.05c0-2.237-1.813-4.05-4.05-4.05s-4.05 1.813-4.05 4.05M36.875 4.05c0-2.237-1.813-4.05-4.05-4.05s-4.05 1.813-4.05 4.05M61.875 4.05c0 2.237 1.813 4.05 4.05 4.05s4.05-1.813 4.05-4.05M36.875 4.05c0 2.237 1.813 4.05 4.05 4.05s4.05-1.813 4.05-4.05" transform="translate(304.057 9.052)"/>
                    <path fill="#750E68" d="M13.225 13.5H25.375V17.55H13.225z" transform="translate(304.057 9.052)"/>
                    <path stroke="#750E68" stroke-width="4.05" d="M11.875 4.05c0-2.237-1.813-4.05-4.05-4.05s-4.05 1.813-4.05 4.05M11.875 4.05c0 2.237 1.813 4.05 4.05 4.05s4.05-1.813 4.05-4.05" transform="translate(304.057 9.052)"/>
                </g>
                <g>
                    <path stroke="#750E68" stroke-width="4.05" d="M0.375 28.217L13.161 13.5 25.375 28.217 38.161 13.5 50.375 28.217 63.161 13.5 75.375 28.217" transform="translate(913.057 229.052)"/>
                    <path fill="#750E68" d="M51.075 13.5H62.075V17.5H51.075z" transform="translate(913.057 229.052)"/>
                    <path fill="#750E68" d="M26.075 13.5H38.225V17.55H26.075z" transform="translate(913.057 229.052)"/>
                    <path fill="#750E68" d="M38.225 13.5H50.375V17.55H38.225z" transform="translate(913.057 229.052)"/>
                    <path fill="#750E68" d="M45 12.825L54.45 12.825 59.85 18.225 45 18.225z" transform="translate(913.057 229.052) rotate(90 52.425 15.525)"/>
                    <path fill="#750E68" d="M20 12.825L29.45 12.825 34.85 18.225 20 18.225z" transform="translate(913.057 229.052) rotate(90 27.425 15.525)"/>
                    <path stroke="#750E68" stroke-width="4.05" d="M61.875 4.05c0-2.237-1.813-4.05-4.05-4.05s-4.05 1.813-4.05 4.05M36.875 4.05c0-2.237-1.813-4.05-4.05-4.05s-4.05 1.813-4.05 4.05M61.875 4.05c0 2.237 1.813 4.05 4.05 4.05s4.05-1.813 4.05-4.05M36.875 4.05c0 2.237 1.813 4.05 4.05 4.05s4.05-1.813 4.05-4.05" transform="translate(913.057 229.052)"/>
                    <path fill="#750E68" d="M13.225 13.5H25.375V17.55H13.225z" transform="translate(913.057 229.052)"/>
                    <path stroke="#750E68" stroke-width="4.05" d="M11.875 4.05c0-2.237-1.813-4.05-4.05-4.05s-4.05 1.813-4.05 4.05M11.875 4.05c0 2.237 1.813 4.05 4.05 4.05s4.05-1.813 4.05-4.05" transform="translate(913.057 229.052)"/>
                </g>
                <g stroke="#750E68" stroke-width="4.05">
                    <path d="M0 4c0 2.21 1.79 4 4 4s4-1.79 4-4 1.79-4 4-4 4 1.79 4 4 1.79 4 4 4 4-1.79 4-4 1.79-4 4-4 4 1.79 4 4 1.79 4 4 4 4-1.79 4-4 1.79-4 4-4 4 1.79 4 4 1.79 4 4 4 4-1.79 4-4 1.79-4 4-4 4 1.79 4 4 1.79 4 4 4 4-1.79 4-4 1.79-4 4-4 4 1.79 4 4 1.79 4 4 4 4-1.79 4-4 1.79-4 4-4 4 1.79 4 4 1.79 4 4 4 4-1.79 4-4 1.79-4 4-4 4 1.79 4 4M0 17c0 2.21 1.79 4 4 4s4-1.79 4-4 1.79-4 4-4 4 1.79 4 4 1.79 4 4 4 4-1.79 4-4 1.79-4 4-4 4 1.79 4 4 1.79 4 4 4 4-1.79 4-4 1.79-4 4-4 4 1.79 4 4 1.79 4 4 4 4-1.79 4-4 1.79-4 4-4 4 1.79 4 4 1.79 4 4 4 4-1.79 4-4 1.79-4 4-4 4 1.79 4 4 1.79 4 4 4 4-1.79 4-4 1.79-4 4-4 4 1.79 4 4 1.79 4 4 4 4-1.79 4-4 1.79-4 4-4 4 1.79 4 4M0 30c0 2.21 1.79 4 4 4s4-1.79 4-4 1.79-4 4-4 4 1.79 4 4 1.79 4 4 4 4-1.79 4-4 1.79-4 4-4 4 1.79 4 4 1.79 4 4 4 4-1.79 4-4 1.79-4 4-4 4 1.79 4 4 1.79 4 4 4 4-1.79 4-4 1.79-4 4-4 4 1.79 4 4 1.79 4 4 4 4-1.79 4-4 1.79-4 4-4 4 1.79 4 4 1.79 4 4 4 4-1.79 4-4 1.79-4 4-4 4 1.79 4 4 1.79 4 4 4 4-1.79 4-4 1.79-4 4-4 4 1.79 4 4M0 43c0 2.21 1.79 4 4 4s4-1.79 4-4 1.79-4 4-4 4 1.79 4 4 1.79 4 4 4 4-1.79 4-4 1.79-4 4-4 4 1.79 4 4 1.79 4 4 4 4-1.79 4-4 1.79-4 4-4 4 1.79 4 4 1.79 4 4 4 4-1.79 4-4 1.79-4 4-4 4 1.79 4 4 1.79 4 4 4 4-1.79 4-4 1.79-4 4-4 4 1.79 4 4 1.79 4 4 4 4-1.79 4-4 1.79-4 4-4 4 1.79 4 4 1.79 4 4 4 4-1.79 4-4 1.79-4 4-4 4 1.79 4 4" transform="translate(6 157)"/>
                </g>
                <path stroke="#750E68" stroke-linecap="round" stroke-linejoin="round" stroke-width="4.05" d="M1247 163c0 2.21 1.79 4 4 4s4-1.79 4-4 1.79-4 4-4 4 1.79 4 4 1.79 4 4 4 4-1.79 4-4 1.79-4 4-4 4 1.79 4 4 1.79 4 4 4 4-1.79 4-4 1.79-4 4-4 4 1.79 4 4 1.79 4 4 4 4-1.79 4-4 1.79-4 4-4 4 1.79 4 4 1.79 4 4 4 4-1.79 4-4 1.79-4 4-4 4 1.79 4 4 1.79 4 4 4 4-1.79 4-4 1.79-4 4-4 4 1.79 4 4 1.79 4 4 4 4-1.79 4-4 1.79-4 4-4 4 1.79 4 4M1247 176c0 2.21 1.79 4 4 4s4-1.79 4-4 1.79-4 4-4 4 1.79 4 4 1.79 4 4 4 4-1.79 4-4 1.79-4 4-4 4 1.79 4 4 1.79 4 4 4 4-1.79 4-4 1.79-4 4-4 4 1.79 4 4 1.79 4 4 4 4-1.79 4-4 1.79-4 4-4 4 1.79 4 4 1.79 4 4 4 4-1.79 4-4 1.79-4 4-4 4 1.79 4 4 1.79 4 4 4 4-1.79 4-4 1.79-4 4-4 4 1.79 4 4 1.79 4 4 4 4-1.79 4-4 1.79-4 4-4 4 1.79 4 4M1247 189c0 2.21 1.79 4 4 4s4-1.79 4-4 1.79-4 4-4 4 1.79 4 4 1.79 4 4 4 4-1.79 4-4 1.79-4 4-4 4 1.79 4 4 1.79 4 4 4 4-1.79 4-4 1.79-4 4-4 4 1.79 4 4 1.79 4 4 4 4-1.79 4-4 1.79-4 4-4 4 1.79 4 4 1.79 4 4 4 4-1.79 4-4 1.79-4 4-4 4 1.79 4 4 1.79 4 4 4 4-1.79 4-4 1.79-4 4-4 4 1.79 4 4 1.79 4 4 4 4-1.79 4-4 1.79-4 4-4 4 1.79 4 4M1247 202c0 2.21 1.79 4 4 4s4-1.79 4-4 1.79-4 4-4 4 1.79 4 4 1.79 4 4 4 4-1.79 4-4 1.79-4 4-4 4 1.79 4 4 1.79 4 4 4 4-1.79 4-4 1.79-4 4-4 4 1.79 4 4 1.79 4 4 4 4-1.79 4-4 1.79-4 4-4 4 1.79 4 4 1.79 4 4 4 4-1.79 4-4 1.79-4 4-4 4 1.79 4 4 1.79 4 4 4 4-1.79 4-4 1.79-4 4-4 4 1.79 4 4 1.79 4 4 4 4-1.79 4-4 1.79-4 4-4 4 1.79 4 4M493 382c0 2.21 1.79 4 4 4s4-1.79 4-4 1.79-4 4-4 4 1.79 4 4 1.79 4 4 4 4-1.79 4-4 1.79-4 4-4 4 1.79 4 4 1.79 4 4 4 4-1.79 4-4 1.79-4 4-4 4 1.79 4 4 1.79 4 4 4 4-1.79 4-4 1.79-4 4-4 4 1.79 4 4 1.79 4 4 4 4-1.79 4-4 1.79-4 4-4 4 1.79 4 4 1.79 4 4 4 4-1.79 4-4 1.79-4 4-4 4 1.79 4 4M493 395c0 2.21 1.79 4 4 4s4-1.79 4-4 1.79-4 4-4 4 1.79 4 4 1.79 4 4 4 4-1.79 4-4 1.79-4 4-4 4 1.79 4 4 1.79 4 4 4 4-1.79 4-4 1.79-4 4-4 4 1.79 4 4 1.79 4 4 4 4-1.79 4-4 1.79-4 4-4 4 1.79 4 4 1.79 4 4 4 4-1.79 4-4 1.79-4 4-4 4 1.79 4 4 1.79 4 4 4 4-1.79 4-4 1.79-4 4-4 4 1.79 4 4M493 408c0 2.21 1.79 4 4 4s4-1.79 4-4 1.79-4 4-4 4 1.79 4 4 1.79 4 4 4 4-1.79 4-4 1.79-4 4-4 4 1.79 4 4 1.79 4 4 4 4-1.79 4-4 1.79-4 4-4 4 1.79 4 4 1.79 4 4 4 4-1.79 4-4 1.79-4 4-4 4 1.79 4 4 1.79 4 4 4 4-1.79 4-4 1.79-4 4-4 4 1.79 4 4 1.79 4 4 4 4-1.79 4-4 1.79-4 4-4 4 1.79 4 4M493 421c0 2.21 1.79 4 4 4s4-1.79 4-4 1.79-4 4-4 4 1.79 4 4 1.79 4 4 4 4-1.79 4-4 1.79-4 4-4 4 1.79 4 4 1.79 4 4 4 4-1.79 4-4 1.79-4 4-4 4 1.79 4 4 1.79 4 4 4 4-1.79 4-4 1.79-4 4-4 4 1.79 4 4 1.79 4 4 4 4-1.79 4-4 1.79-4 4-4 4 1.79 4 4 1.79 4 4 4 4-1.79 4-4 1.79-4 4-4 4 1.79 4 4"/>
                <g stroke="#750E68" stroke-width="4.05">
                    <path d="M35 150c0-2.21 1.823-4 4.071-4 2.249 0 4.072 1.79 4.072 4s1.823 4 4.071 4c2.249 0 4.072-1.79 4.072-4s1.823-4 4.071-4c2.249 0 4.072 1.79 4.072 4s1.822 4 4.071 4c2.249 0 4.071-1.79 4.071-4s1.823-4 4.072-4c2.248 0 4.071 1.79 4.071 4s1.823 4 4.072 4c2.248 0 4.071-1.79 4.071-4s1.823-4 4.072-4c2.248 0 4.071 1.79 4.071 4M35 136c0-2.21 1.823-4 4.071-4 2.249 0 4.072 1.79 4.072 4s1.823 4 4.071 4c2.249 0 4.072-1.79 4.072-4s1.823-4 4.071-4c2.249 0 4.072 1.79 4.072 4s1.822 4 4.071 4c2.249 0 4.071-1.79 4.071-4s1.823-4 4.072-4c2.248 0 4.071 1.79 4.071 4s1.823 4 4.072 4c2.248 0 4.071-1.79 4.071-4s1.823-4 4.072-4c2.248 0 4.071 1.79 4.071 4M35 163c0-2.21 1.823-4 4.071-4 2.249 0 4.072 1.79 4.072 4s1.823 4 4.071 4c2.249 0 4.072-1.79 4.072-4s1.823-4 4.071-4c2.249 0 4.072 1.79 4.072 4s1.822 4 4.071 4c2.249 0 4.071-1.79 4.071-4s1.823-4 4.072-4c2.248 0 4.071 1.79 4.071 4s1.823 4 4.072 4c2.248 0 4.071-1.79 4.071-4s1.823-4 4.072-4c2.248 0 4.071 1.79 4.071 4M124.5 43L88 42.964V23.382C88 10.468 76.569 0 62.468 0c-14.1 0-25.532 10.468-25.532 23.382v19.582L.5 43" transform="translate(627 40)"/>
                    <path d="M68 67.591L86 61 86 104.409 68 111z" transform="translate(627 40) matrix(-1 0 0 1 154 0)"/>
                    <path d="M39 67.707L57 60 57 104.427 39.222 111z" transform="translate(627 40)"/>
                    <path stroke-linecap="round" stroke-linejoin="round" d="M77.5 65.226L77.5 106.774" transform="translate(627 40)"/>
                    <path stroke-linecap="round" stroke-linejoin="round" d="M48.5 63.224L48.5 106.776" transform="translate(627 40) matrix(-1 0 0 1 97 0)"/>
                    <path stroke-linecap="round" stroke-linejoin="round" d="M110.772 76L69.114 60.075 68 59.402 68 52 111 67.925zM15.188 77L56.36 60.314 57 61.229 57 53 15 69.686zM68 2l16.072 55.274m3.076 10.045L109 143" transform="translate(627 40)"/>
                    <path stroke-linecap="round" stroke-linejoin="round" d="M15 2l15.995 55.86m3.379 10.586L56 143" transform="translate(627 40) matrix(-1 0 0 1 71 0)"/>
                    <path stroke-linecap="round" stroke-linejoin="round" d="M22.224 93.225L38.776 164.775" transform="translate(627 40) matrix(-1 0 0 1 61 0)"/>
                    <path stroke-linecap="round" stroke-linejoin="round" d="M86.226 92.226L104.774 165.774" transform="translate(627 40)"/>
                    <path stroke-linecap="round" stroke-linejoin="round" d="M48 2L58 55" transform="translate(627 40) matrix(-1 0 0 1 106 0)"/>
                    <path stroke-linecap="round" stroke-linejoin="round" d="M76 2L65 55" transform="translate(627 40) matrix(-1 0 0 1 141 0)"/>
                </g>
                <g>
                    <g>
                        <path stroke="#750E68" stroke-width="4.05" d="M13.326 27.339l10.299 12.41v20.326h-21.6v-20.96l11.301-11.776zM56.526 27.339l10.299 12.41v20.326h-21.6v-20.96l11.301-11.776zM34.926 27.339l10.299 12.41v20.326h-21.6v-20.96l11.301-11.776zM78.126 27.339l10.299 12.41v20.326h-21.6v-20.96l11.301-11.776z" transform="translate(1032 33) translate(87 23)"/>
                        <path fill="#750E68" d="M29.7 47.25H39.15V58.05H29.7zM10.8 4.05H14.850000000000001V29.7H10.8zM54 4.05H58.05V29.7H54zM32.4 4.05H36.449999999999996V29.7H32.4zM75.6 4.05H79.64999999999999V29.7H75.6zM0 14.85H4.05V39.15H0z" transform="translate(1032 33) translate(87 23)"/>
                        <path fill="#0F72F9" d="M43.2 14.85H47.25V39.15H43.2zM21.6 14.85H25.650000000000002V39.15H21.6zM64.8 14.85H68.85V39.15H64.8z" transform="translate(1032 33) translate(87 23)"/>
                        <path fill="#750E68" d="M21.6 14.85H25.650000000000002V39.15H21.6zM64.8 14.85H68.85V39.15H64.8zM43.2 14.85H47.25V39.15H43.2zM86.4 14.85H90.45V39.15H86.4z" transform="translate(1032 33) translate(87 23)"/>
                    </g>
                    <g>
                        <path stroke="#750E68" stroke-width="4.05" d="M13.326 27.339l10.299 12.41v20.326h-21.6v-20.96l11.301-11.776zM56.526 27.339l10.299 12.41v20.326h-21.6v-20.96l11.301-11.776zM34.926 27.339l10.299 12.41v20.326h-21.6v-20.96l11.301-11.776zM78.126 27.339l10.299 12.41v20.326h-21.6v-20.96l11.301-11.776z" transform="translate(1032 33)"/>
                        <path fill="#750E68" d="M29.7 47.25H39.15V58.05H29.7zM10.8 4.05H14.850000000000001V29.7H10.8zM54 4.05H58.05V29.7H54zM32.4 4.05H36.449999999999996V29.7H32.4zM75.6 4.05H79.64999999999999V29.7H75.6zM0 14.85H4.05V39.15H0z" transform="translate(1032 33)"/>
                        <path fill="#0F72F9" d="M43.2 14.85H47.25V39.15H43.2zM21.6 14.85H25.650000000000002V39.15H21.6zM64.8 14.85H68.85V39.15H64.8z" transform="translate(1032 33)"/>
                        <path fill="#750E68" d="M21.6 14.85H25.650000000000002V39.15H21.6zM64.8 14.85H68.85V39.15H64.8zM43.2 14.85H47.25V39.15H43.2zM86.4 14.85H90.45V39.15H86.4z" transform="translate(1032 33)"/>
                    </g>
                </g>
                <g>
                    <g>
                        <path stroke="#750E68" stroke-width="4.05" d="M13.326 27.339l10.299 12.41v20.326h-21.6v-20.96l11.301-11.776zM56.526 27.339l10.299 12.41v20.326h-21.6v-20.96l11.301-11.776zM34.926 27.339l10.299 12.41v20.326h-21.6v-20.96l11.301-11.776zM78.126 27.339l10.299 12.41v20.326h-21.6v-20.96l11.301-11.776z" transform="translate(278 253) translate(87 23)"/>
                        <path fill="#750E68" d="M29.7 47.25H39.15V58.05H29.7zM10.8 4.05H14.850000000000001V29.7H10.8zM54 4.05H58.05V29.7H54zM32.4 4.05H36.449999999999996V29.7H32.4zM75.6 4.05H79.64999999999999V29.7H75.6zM0 14.85H4.05V39.15H0z" transform="translate(278 253) translate(87 23)"/>
                        <path fill="#0F72F9" d="M43.2 14.85H47.25V39.15H43.2zM21.6 14.85H25.650000000000002V39.15H21.6zM64.8 14.85H68.85V39.15H64.8z" transform="translate(278 253) translate(87 23)"/>
                        <path fill="#750E68" d="M21.6 14.85H25.650000000000002V39.15H21.6zM64.8 14.85H68.85V39.15H64.8zM43.2 14.85H47.25V39.15H43.2zM86.4 14.85H90.45V39.15H86.4z" transform="translate(278 253) translate(87 23)"/>
                    </g>
                    <g>
                        <path stroke="#750E68" stroke-width="4.05" d="M13.326 27.339l10.299 12.41v20.326h-21.6v-20.96l11.301-11.776zM56.526 27.339l10.299 12.41v20.326h-21.6v-20.96l11.301-11.776zM34.926 27.339l10.299 12.41v20.326h-21.6v-20.96l11.301-11.776zM78.126 27.339l10.299 12.41v20.326h-21.6v-20.96l11.301-11.776z" transform="translate(278 253)"/>
                        <path fill="#750E68" d="M29.7 47.25H39.15V58.05H29.7zM10.8 4.05H14.850000000000001V29.7H10.8zM54 4.05H58.05V29.7H54zM32.4 4.05H36.449999999999996V29.7H32.4zM75.6 4.05H79.64999999999999V29.7H75.6zM0 14.85H4.05V39.15H0z" transform="translate(278 253)"/>
                        <path fill="#0F72F9" d="M43.2 14.85H47.25V39.15H43.2zM21.6 14.85H25.650000000000002V39.15H21.6zM64.8 14.85H68.85V39.15H64.8z" transform="translate(278 253)"/>
                        <path fill="#750E68" d="M21.6 14.85H25.650000000000002V39.15H21.6zM64.8 14.85H68.85V39.15H64.8zM43.2 14.85H47.25V39.15H43.2zM86.4 14.85H90.45V39.15H86.4z" transform="translate(278 253)"/>
                    </g>
                </g>
                <g stroke="#750E68">
                    <path stroke-width="4.05" d="M14.436 37.8v4.05h4.05v4.05h4.05v29.7H2.286V45.9h4.05v-4.05h4.05V37.8h4.05zM80.586 37.8v4.05h4.05v4.05h4.05v29.7h-20.25V45.9h4.05v-4.05h4.05V37.8h4.05zM52.236 16.2v47.25h-13.5V16.2h13.5z" transform="translate(766 128)"/>
                    <path stroke-width="4.05" d="M52.236 32.4v43.2h-13.5V32.4h13.5zM38.736 55.35V75.6h-16.2V55.35h16.2zM38.736 48.6v6.75h-16.2V48.6h16.2zM68.436 55.35V75.6h-16.2V55.35h16.2z" transform="translate(766 128)"/>
                    <path stroke-width="4.05" d="M52.236 48.6h16.2v6.75h-16.2V48.6zM49.536 7.425v9.45h-8.1v-9.45h8.1z" transform="translate(766 128)"/>
                    <path fill="#750E68" stroke-width="1.35" d="M10.386 54H14.436V60.75H10.386zM76.536 54H80.586V60.75H76.536zM27.936 64.8H33.336V75.6H27.936zM29.286 62.1H31.986V64.8H29.286zM58.986 62.1H61.686V64.8H58.986zM57.636 64.8H63.036V75.6H57.636zM44.136 22.95H46.836000000000006V25.65H44.136zM42.786.675H48.186V4.725H42.786z" transform="translate(766 128)"/>
                </g>
                <g stroke="#750E68">
                    <path stroke-width="4.05" d="M14.436 37.8v4.05h4.05v4.05h4.05v29.7H2.286V45.9h4.05v-4.05h4.05V37.8h4.05zM80.586 37.8v4.05h4.05v4.05h4.05v29.7h-20.25V45.9h4.05v-4.05h4.05V37.8h4.05zM52.236 16.2v47.25h-13.5V16.2h13.5z" transform="translate(12 348)"/>
                    <path stroke-width="4.05" d="M52.236 32.4v43.2h-13.5V32.4h13.5zM38.736 55.35V75.6h-16.2V55.35h16.2zM38.736 48.6v6.75h-16.2V48.6h16.2zM68.436 55.35V75.6h-16.2V55.35h16.2z" transform="translate(12 348)"/>
                    <path stroke-width="4.05" d="M52.236 48.6h16.2v6.75h-16.2V48.6zM49.536 7.425v9.45h-8.1v-9.45h8.1z" transform="translate(12 348)"/>
                    <path fill="#750E68" stroke-width="1.35" d="M10.386 54H14.436V60.75H10.386zM76.536 54H80.586V60.75H76.536zM27.936 64.8H33.336V75.6H27.936zM29.286 62.1H31.986V64.8H29.286zM58.986 62.1H61.686V64.8H58.986zM57.636 64.8H63.036V75.6H57.636zM44.136 22.95H46.836000000000006V25.65H44.136zM42.786.675H48.186V4.725H42.786z" transform="translate(12 348)"/>
                </g>
                <g stroke="#750E68" stroke-width="4.05">
                    <g transform="translate(12 82) translate(14.85)">
                        <path d="M64.378 15.772c6.875 8.083 10.547 14.097 10.547 18.13 0 2.884-1.137 5.497-2.983 7.388-1.828 1.872-4.352 3.035-7.142 3.035s-5.314-1.163-7.142-3.035c-1.846-1.891-2.983-4.504-2.983-7.388 0-4.03 3.366-10.05 9.703-18.13z"/>
                        <path d="M65.242 29.252c3.619 4.248 5.633 7.432 5.633 9.629 0 1.505-.605 2.867-1.586 3.854-.976.982-2.324 1.59-3.814 1.59-1.49 0-2.838-.608-3.814-1.59-.98-.987-1.586-2.35-1.586-3.854 0-2.194 1.837-5.383 5.167-9.63zM13.636 7.634c2.4 2.8 4.32 5.115 5.759 6.945-.757 2.124-1.17 4.412-1.17 6.796 0 5.476 2.173 10.444 5.704 14.089-.97 1.28-2.197 2.362-3.604 3.174-1.805 1.041-3.907 1.637-6.15 1.637-3.359 0-6.401-1.337-8.603-3.502-2.19-2.154-3.547-5.128-3.547-8.415 0-4.588 4.018-11.47 11.611-20.724z"/>
                        <circle cx="38.025" cy="21.375" r="19.125"/>
                        <path stroke-linecap="square" stroke-linejoin="round" d="M14.175 40.275L13.838 56.62M65.475 44.169L65.138 56.742M6.075 22.725L15.6 39.052M31.725 28.125L37.125 33.525M39.825 26.775L43.875 22.725M38.475 21.375L38.138 56.62"/>
                    </g>
                    <path d="M105.3 51.075c0-5.022-3.493-9.679-9.448-13.507-1.598-1.028-3.375-1.995-5.308-2.895m-72.662-1.34C6.918 37.663 0 44.006 0 51.075" transform="translate(12 82)"/>
                </g>
                <g stroke="#750E68" stroke-width="4.05">
                    <g transform="translate(615 321) translate(14.85)">
                        <path d="M64.378 15.772c6.875 8.083 10.547 14.097 10.547 18.13 0 2.884-1.137 5.497-2.983 7.388-1.828 1.872-4.352 3.035-7.142 3.035s-5.314-1.163-7.142-3.035c-1.846-1.891-2.983-4.504-2.983-7.388 0-4.03 3.366-10.05 9.703-18.13z"/>
                        <path d="M65.242 29.252c3.619 4.248 5.633 7.432 5.633 9.629 0 1.505-.605 2.867-1.586 3.854-.976.982-2.324 1.59-3.814 1.59-1.49 0-2.838-.608-3.814-1.59-.98-.987-1.586-2.35-1.586-3.854 0-2.194 1.837-5.383 5.167-9.63zM13.636 7.634c2.4 2.8 4.32 5.115 5.759 6.945-.757 2.124-1.17 4.412-1.17 6.796 0 5.476 2.173 10.444 5.704 14.089-.97 1.28-2.197 2.362-3.604 3.174-1.805 1.041-3.907 1.637-6.15 1.637-3.359 0-6.401-1.337-8.603-3.502-2.19-2.154-3.547-5.128-3.547-8.415 0-4.588 4.018-11.47 11.611-20.724z"/>
                        <circle cx="38.025" cy="21.375" r="19.125"/>
                        <path stroke-linecap="square" stroke-linejoin="round" d="M14.175 40.275L13.838 56.62M65.475 44.169L65.138 56.742M6.075 22.725L15.6 39.052M31.725 28.125L37.125 33.525M39.825 26.775L43.875 22.725M38.475 21.375L38.138 56.62"/>
                    </g>
                    <path d="M105.3 51.075c0-5.022-3.493-9.679-9.448-13.507-1.598-1.028-3.375-1.995-5.308-2.895m-72.662-1.34C6.918 37.663 0 44.006 0 51.075" transform="translate(615 321)"/>
                </g>
                <g transform="translate(498 4)">
                    <g stroke="#750E68" stroke-width="4.05">
                        <g transform="translate(14) translate(14.85)">
                            <path d="M64.378 15.772c6.875 8.083 10.547 14.097 10.547 18.13 0 2.884-1.137 5.497-2.983 7.388-1.828 1.872-4.352 3.035-7.142 3.035s-5.314-1.163-7.142-3.035c-1.846-1.891-2.983-4.504-2.983-7.388 0-4.03 3.366-10.05 9.703-18.13z"/>
                            <path d="M65.242 29.252c3.619 4.248 5.633 7.432 5.633 9.629 0 1.505-.605 2.867-1.586 3.854-.976.982-2.324 1.59-3.814 1.59-1.49 0-2.838-.608-3.814-1.59-.98-.987-1.586-2.35-1.586-3.854 0-2.194 1.837-5.383 5.167-9.63zM13.636 7.634c2.4 2.8 4.32 5.115 5.759 6.945-.757 2.124-1.17 4.412-1.17 6.796 0 5.476 2.173 10.444 5.704 14.089-.97 1.28-2.197 2.362-3.604 3.174-1.805 1.041-3.907 1.637-6.15 1.637-3.359 0-6.401-1.337-8.603-3.502-2.19-2.154-3.547-5.128-3.547-8.415 0-4.588 4.018-11.47 11.611-20.724z"/>
                            <circle cx="38.025" cy="21.375" r="19.125"/>
                            <path stroke-linecap="square" stroke-linejoin="round" d="M14.175 40.275L13.838 56.62M65.475 44.169L65.138 56.742M6.075 22.725L15.6 39.052M31.725 28.125L37.125 33.525M39.825 26.775L43.875 22.725M38.475 21.375L38.138 56.62"/>
                        </g>
                        <path d="M105.3 51.075c0-5.022-3.493-9.679-9.448-13.507-1.598-1.028-3.375-1.995-5.308-2.895m-72.662-1.34C6.918 37.663 0 44.006 0 51.075" transform="translate(14)"/>
                    </g>
                    <use stroke="#750E68" stroke-width="4.05" transform="rotate(17 36 80)" xlink:href="#8h5maewisc"/>
                    <use stroke="#750E68" stroke-width="4.05" xlink:href="#dl3w77n80d"/>
                    <use stroke="#750E68" stroke-width="4.05" xlink:href="#yrbdm9nvpe"/>
                </g>
                <g transform="translate(1107 224)">
                    <g stroke="#750E68" stroke-width="4.05">
                        <g transform="translate(14) translate(14.85)">
                            <path d="M64.378 15.772c6.875 8.083 10.547 14.097 10.547 18.13 0 2.884-1.137 5.497-2.983 7.388-1.828 1.872-4.352 3.035-7.142 3.035s-5.314-1.163-7.142-3.035c-1.846-1.891-2.983-4.504-2.983-7.388 0-4.03 3.366-10.05 9.703-18.13z"/>
                            <path d="M65.242 29.252c3.619 4.248 5.633 7.432 5.633 9.629 0 1.505-.605 2.867-1.586 3.854-.976.982-2.324 1.59-3.814 1.59-1.49 0-2.838-.608-3.814-1.59-.98-.987-1.586-2.35-1.586-3.854 0-2.194 1.837-5.383 5.167-9.63zM13.636 7.634c2.4 2.8 4.32 5.115 5.759 6.945-.757 2.124-1.17 4.412-1.17 6.796 0 5.476 2.173 10.444 5.704 14.089-.97 1.28-2.197 2.362-3.604 3.174-1.805 1.041-3.907 1.637-6.15 1.637-3.359 0-6.401-1.337-8.603-3.502-2.19-2.154-3.547-5.128-3.547-8.415 0-4.588 4.018-11.47 11.611-20.724z"/>
                            <circle cx="38.025" cy="21.375" r="19.125"/>
                            <path stroke-linecap="square" stroke-linejoin="round" d="M14.175 40.275L13.838 56.62M65.475 44.169L65.138 56.742M6.075 22.725L15.6 39.052M31.725 28.125L37.125 33.525M39.825 26.775L43.875 22.725M38.475 21.375L38.138 56.62"/>
                        </g>
                        <path d="M105.3 51.075c0-5.022-3.493-9.679-9.448-13.507-1.598-1.028-3.375-1.995-5.308-2.895m-72.662-1.34C6.918 37.663 0 44.006 0 51.075" transform="translate(14)"/>
                    </g>
                    <use stroke="#750E68" stroke-width="4.05" transform="rotate(17 36 80)" xlink:href="#ly607v1erf"/>
                    <use stroke="#750E68" stroke-width="4.05" xlink:href="#vh3rtzc0tg"/>
                    <use stroke="#750E68" stroke-width="4.05" xlink:href="#mb4b0uhewh"/>
                </g>
                <g transform="translate(125 146)">
                    <g>
                        <path stroke="#750E68" stroke-width="4.05" d="M60.074 27c0-14.912-13.278-27-29.656-27S.762 12.088.762 27v22.612h59.312V27z" transform="translate(31 15)"/>
                        <path fill="#750E68" d="M11.883 23.625H48.953V27.675H11.883z" transform="translate(31 15) rotate(-180 30.418 25.65)"/>
                        <path fill="#750E68" d="M7.435 33.075H51.919000000000004V37.125H7.435z" transform="translate(31 15) rotate(-180 29.677 35.1)"/>
                        <path fill="#750E68" d="M15.987 14.175H45.987V18.225H15.987z" transform="translate(31 15) rotate(-180 30.987 16.2)"/>
                        <path fill="#750E68" d="M17.814 6.075H44.504000000000005V10.125H17.814z" transform="translate(31 15) rotate(-180 31.16 8.1)"/>
                    </g>
                    <use stroke="#750E68" stroke-width="4.05" xlink:href="#f0r2hr9b6i"/>
                </g>
                <g transform="translate(734 366)">
                    <g>
                        <path stroke="#750E68" stroke-width="4.05" d="M60.074 27c0-14.912-13.278-27-29.656-27S.762 12.088.762 27v22.612h59.312V27z" transform="translate(31 15)"/>
                        <path fill="#750E68" d="M11.883 23.625H48.953V27.675H11.883z" transform="translate(31 15) rotate(-180 30.418 25.65)"/>
                        <path fill="#750E68" d="M7.435 33.075H51.919000000000004V37.125H7.435z" transform="translate(31 15) rotate(-180 29.677 35.1)"/>
                        <path fill="#750E68" d="M15.987 14.175H45.987V18.225H15.987z" transform="translate(31 15) rotate(-180 30.987 16.2)"/>
                        <path fill="#750E68" d="M17.814 6.075H44.504000000000005V10.125H17.814z" transform="translate(31 15) rotate(-180 31.16 8.1)"/>
                    </g>
                    <use stroke="#750E68" stroke-width="4.05" xlink:href="#dw5tf1x22j"/>
                </g>
                <path stroke="#750E68" stroke-linecap="square" stroke-width="4" d="M627 21L751 21M456 60L502 60M1065 280L1111 280M249 82L271 82M858 302L880 302M1003 108L751.5 107.5M249 328L1 328M751 3L751.5 221.527M627 3L627.5 221.527M502 3L502.5 221.527M125 2L125 222M734 222L734 441M249 2L249.5 222.528M1 2L1 442M858 222L858 442"/>
                <path stroke="#750E68" stroke-dasharray="20" stroke-linecap="square" stroke-width="4" d="M877 4L877 106M125 224L125 326"/>
                <path stroke="#750E68" stroke-linecap="square" stroke-width="4" d="M1003 2L1003 222M249 222L249 442M1236 2L1236 222M482 222L482 441M602 222L602 441M1032 69L1005 69M278 289L251 289M1088 2L1088 46M334 222L334 266M1142 118L1142 222M388 338L388 441M1110 2L1110 46M356 222L356 266M410 338L410 441M1032 83L1005 83M278 303L251 303"/>
                <g stroke="#750E68" stroke-linecap="square" stroke-width="4">
                    <path d="M21 1L0 1M68 1L47 1M115 1L94 1" transform="translate(373 91)"/>
                </g>
                <g stroke="#750E68" stroke-linecap="square" stroke-width="4">
                    <path d="M21 1L0 1M68 1L47 1M115 1L94 1" transform="translate(982 311)"/>
                </g>
                <path stroke="#750E68" stroke-linecap="square" stroke-width="4" d="M1236 83L1210 83M482 303L456 303M1236 97L1210 97M482 317L456 317M502 104L250 104M1111 324L859 324"/>
                <path stroke="#750E68" stroke-dasharray="20" stroke-linecap="square" stroke-width="4" d="M376 113L376 223M985 333L985 443"/>
                <g transform="translate(162.756 10.42)">
                    <ellipse cx="24.975" cy="4.05" fill="#750E68" rx="4.725" ry="4.05"/>
                    <ellipse cx="4.725" cy="27.45" fill="#750E68" rx="4.725" ry="4.05"/>
                    <ellipse cx="45.225" cy="27.45" fill="#750E68" rx="4.725" ry="4.05"/>
                    <path stroke="#750E68" stroke-linecap="square" stroke-width="4.05" d="M25.5 49.5L25.975 106.57M4.95 27.272L25.2 4.05 45.45 27.272 25.2 49.95z"/>
                    <path stroke="#750E68" stroke-width="4.05" d="M26.65 84.7L10 87.906 10 88.975 26.65 93.25"/>
                    <path stroke="#750E68" stroke-width="4.05" d="M26.65 92.8L10 96.006 10 97.075 26.65 101.35"/>
                    <path stroke="#750E68" stroke-linecap="square" stroke-width="4.05" d="M22.35 78.175L29.15 78.175"/>
                </g>
                <g>
                    <path stroke="#750E68" stroke-width="4.05" d="M42.525 21.375c1.74 0 3.315.705 4.455 1.845 1.14 1.14 1.845 2.715 1.845 4.455 0 1.712-.683 3.264-1.791 4.4-.46.472-.995.872-1.584 1.181.532.467 1.02.972 1.466 1.516 2.218 2.71 3.265 6.284 3.26 10.678h0v4.95c0 5.778-2.343 11.01-6.13 14.796-3.786 3.787-9.017 6.129-14.796 6.129h0-6.3c-5.778 0-11.01-2.342-14.796-6.129C4.367 61.41 2.025 56.178 2.025 50.4h0v-4.947c.006-4.053.902-7.43 2.773-10.103.428-.61.907-1.186 1.438-1.727-.665-.235-1.285-.58-1.834-1.018-1.448-1.155-2.377-2.934-2.377-4.93 0-1.74.705-3.315 1.845-4.455 1.14-1.14 2.715-1.845 4.455-1.845 1.69 0 3.225.665 4.356 1.749 1.136 1.087 1.866 2.596 1.938 4.276.035.826-.092 1.625-.353 2.364.903-.174 1.792-.323 2.66-.445 5.283-.747 11.602-.762 17.034-.079.846.107 1.708.235 2.58.383-.237-.72-.346-1.491-.305-2.286.087-1.666.822-3.16 1.957-4.235 1.129-1.07 2.654-1.727 4.333-1.727z" transform="translate(789.477 17.871)"/>
                    <path stroke="#750E68" stroke-width="4.05" d="M8.55 21.6v-10C8.55 5.193 13.558 0 19.736 0h12.728C38.642 0 43.65 5.193 43.65 11.6v10" transform="translate(789.477 17.871)"/>
                    <path fill="#750E68" d="M26.325 40.05c2.61 0 4.725 2.115 4.725 4.725 0 1.584-.78 2.986-1.976 3.843l.946 5.32c.059.213.099.433.117.66l.013.077v.225c0 1.988-1.612 3.6-3.6 3.6s-3.6-1.612-3.6-3.6c0-.075.002-.15.007-.224l-.007-.001.017-.124c.008-.083.019-.165.032-.247l.743-5.572c-1.29-.843-2.142-2.3-2.142-3.957 0-2.61 2.115-4.725 4.725-4.725z" transform="translate(789.477 17.871)"/>
                </g>
                <g>
                    <path stroke="#750E68" stroke-width="4.05" d="M42.525 21.375c1.74 0 3.315.705 4.455 1.845 1.14 1.14 1.845 2.715 1.845 4.455 0 1.712-.683 3.264-1.791 4.4-.46.472-.995.872-1.584 1.181.532.467 1.02.972 1.466 1.516 2.218 2.71 3.265 6.284 3.26 10.678h0v4.95c0 5.778-2.343 11.01-6.13 14.796-3.786 3.787-9.017 6.129-14.796 6.129h0-6.3c-5.778 0-11.01-2.342-14.796-6.129C4.367 61.41 2.025 56.178 2.025 50.4h0v-4.947c.006-4.053.902-7.43 2.773-10.103.428-.61.907-1.186 1.438-1.727-.665-.235-1.285-.58-1.834-1.018-1.448-1.155-2.377-2.934-2.377-4.93 0-1.74.705-3.315 1.845-4.455 1.14-1.14 2.715-1.845 4.455-1.845 1.69 0 3.225.665 4.356 1.749 1.136 1.087 1.866 2.596 1.938 4.276.035.826-.092 1.625-.353 2.364.903-.174 1.792-.323 2.66-.445 5.283-.747 11.602-.762 17.034-.079.846.107 1.708.235 2.58.383-.237-.72-.346-1.491-.305-2.286.087-1.666.822-3.16 1.957-4.235 1.129-1.07 2.654-1.727 4.333-1.727z" transform="translate(35.477 237.871)"/>
                    <path stroke="#750E68" stroke-width="4.05" d="M8.55 21.6v-10C8.55 5.193 13.558 0 19.736 0h12.728C38.642 0 43.65 5.193 43.65 11.6v10" transform="translate(35.477 237.871)"/>
                    <path fill="#750E68" d="M26.325 40.05c2.61 0 4.725 2.115 4.725 4.725 0 1.584-.78 2.986-1.976 3.843l.946 5.32c.059.213.099.433.117.66l.013.077v.225c0 1.988-1.612 3.6-3.6 3.6s-3.6-1.612-3.6-3.6c0-.075.002-.15.007-.224l-.007-.001.017-.124c.008-.083.019-.165.032-.247l.743-5.572c-1.29-.843-2.142-2.3-2.142-3.957 0-2.61 2.115-4.725 4.725-4.725z" transform="translate(35.477 237.871)"/>
                </g>
                <path stroke="#750E68" stroke-linecap="square" stroke-width="4" d="M129 130L249 130M738 350L858 350"/>
                <g transform="translate(855 192)">
                    <use stroke="#750E68" stroke-width="4.05" transform="rotate(17 35.154 14.632)" xlink:href="#m38s5amd0k"/>
                    <use stroke="#750E68" stroke-width="4.05" xlink:href="#hoa0yuxlbl"/>
                </g>
                <g stroke="#750E68" transform="translate(872.212 135)">
                    <g stroke-width="4.05">
                        <g transform="translate(5.787) translate(.85)">
                            <path d="M64.378 15.772c6.875 8.083 10.547 14.097 10.547 18.13 0 2.884-1.137 5.497-2.983 7.388-1.828 1.872-4.352 3.035-7.142 3.035s-5.314-1.163-7.142-3.035c-1.846-1.891-2.983-4.504-2.983-7.388 0-4.03 3.366-10.05 9.703-18.13z"/>
                            <path d="M65.242 29.252c3.619 4.248 5.633 7.432 5.633 9.629 0 1.505-.605 2.867-1.586 3.854-.976.982-2.324 1.59-3.814 1.59-1.49 0-2.838-.608-3.814-1.59-.98-.987-1.586-2.35-1.586-3.854 0-2.194 1.837-5.383 5.167-9.63zM13.636 7.634c2.4 2.8 4.32 5.115 5.759 6.945-.757 2.124-1.17 4.412-1.17 6.796 0 5.476 2.173 10.444 5.704 14.089-.97 1.28-2.197 2.362-3.604 3.174-1.805 1.041-3.907 1.637-6.15 1.637-3.359 0-6.401-1.337-8.603-3.502-2.19-2.154-3.547-5.128-3.547-8.415 0-4.588 4.018-11.47 11.611-20.724z"/>
                            <circle cx="38.025" cy="21.375" r="19.125"/>
                            <path stroke-linecap="square" stroke-linejoin="round" d="M14.175 40.275L14.65 56.5M65.475 44.169L65.138 56.742M6.075 22.725L15.6 39.052M31.725 28.125L37.125 33.525M39.825 26.775L43.875 22.725M38.475 21.375L38.138 56.62"/>
                        </g>
                    </g>
                    <path stroke-width="4" d="M109.465 16.962c4.384 5.213 6.782 9.11 6.782 11.77 0 1.859-.732 3.544-1.922 4.764-1.173 1.201-2.792 1.949-4.582 1.949-1.791 0-3.41-.748-4.583-1.95-1.19-1.219-1.922-2.904-1.922-4.764 0-2.656 2.192-6.558 6.227-11.769zM73.237 13.731c0-2.151-1.906-5.485-5.72-10-3.52 4.515-5.28 7.849-5.28 10"/>
                    <path stroke-width="4" d="M80.506 12.316c-.846-1.338-2.002-2.866-3.469-4.585-3.2 4.064-4.8 7.064-4.8 9"/>
                    <circle cx="91" cy="19.962" r="12.805" stroke-width="4"/>
                    <path stroke-width="4" d="M12 19.767c-6.627 0-12 5.373-12 12 0 6.628 5.373 12 12 12s-.413-6.391-.213.233l.292 9.634"/>
                    <path stroke-linecap="square" stroke-linejoin="round" stroke-width="4" d="M110.215 35.918L109.979 44.719M86.59 24.688L90.37 28.468M91.315 19.962L91.079 44.634"/>
                </g>
                <g stroke="#750E68" transform="translate(118.213 355)">
                    <g stroke-width="4.05">
                        <g transform="translate(5.787) translate(.85)">
                            <path d="M64.378 15.772c6.875 8.083 10.547 14.097 10.547 18.13 0 2.884-1.137 5.497-2.983 7.388-1.828 1.872-4.352 3.035-7.142 3.035s-5.314-1.163-7.142-3.035c-1.846-1.891-2.983-4.504-2.983-7.388 0-4.03 3.366-10.05 9.703-18.13z"/>
                            <path d="M65.242 29.252c3.619 4.248 5.633 7.432 5.633 9.629 0 1.505-.605 2.867-1.586 3.854-.976.982-2.324 1.59-3.814 1.59-1.49 0-2.838-.608-3.814-1.59-.98-.987-1.586-2.35-1.586-3.854 0-2.194 1.837-5.383 5.167-9.63zM13.636 7.634c2.4 2.8 4.32 5.115 5.759 6.945-.757 2.124-1.17 4.412-1.17 6.796 0 5.476 2.173 10.444 5.704 14.089-.97 1.28-2.197 2.362-3.604 3.174-1.805 1.041-3.907 1.637-6.15 1.637-3.359 0-6.401-1.337-8.603-3.502-2.19-2.154-3.547-5.128-3.547-8.415 0-4.588 4.018-11.47 11.611-20.724z"/>
                            <circle cx="38.025" cy="21.375" r="19.125"/>
                            <path stroke-linecap="square" stroke-linejoin="round" d="M14.175 40.275L14.65 56.5M65.475 44.169L65.138 56.742M6.075 22.725L15.6 39.052M31.725 28.125L37.125 33.525M39.825 26.775L43.875 22.725M38.475 21.375L38.138 56.62"/>
                        </g>
                    </g>
                    <path stroke-width="4" d="M109.465 16.962c4.384 5.213 6.782 9.11 6.782 11.77 0 1.859-.732 3.544-1.922 4.764-1.173 1.201-2.792 1.949-4.582 1.949-1.791 0-3.41-.748-4.583-1.95-1.19-1.219-1.922-2.904-1.922-4.764 0-2.656 2.192-6.558 6.227-11.769zM73.237 13.731c0-2.151-1.906-5.485-5.72-10-3.52 4.515-5.28 7.849-5.28 10"/>
                    <path stroke-width="4" d="M80.506 12.316c-.846-1.338-2.002-2.866-3.469-4.585-3.2 4.064-4.8 7.064-4.8 9"/>
                    <circle cx="91" cy="19.962" r="12.805" stroke-width="4"/>
                    <path stroke-width="4" d="M12 19.767c-6.627 0-12 5.373-12 12 0 6.628 5.373 12 12 12s-.413-6.391-.213.233l.292 9.634"/>
                    <path stroke-linecap="square" stroke-linejoin="round" stroke-width="4" d="M110.215 35.918L109.979 44.719M86.59 24.688L90.37 28.468M91.315 19.962L91.079 44.634"/>
                </g>
                <path stroke="#750E68" stroke-linecap="square" stroke-width="4" d="M1367 142L1236 142M602 362L482 362"/>
                <g stroke="#750E68" stroke-width="4.05" transform="rotate(90 543.816 668.047)">
                    <rect width="8.1" height="21.6" x="69.525" y="11.475" rx="4.05" transform="rotate(90 73.575 22.275)"/>
                    <rect width="8.1" height="12.15" x="33.75" y="16.2" rx="4.05" transform="rotate(90 37.8 22.275)"/>
                    <path stroke-linecap="square" d="M45.9 22.95L62.775 22.275" transform="rotate(-180 54 22.275)"/>
                    <circle cx="7.425" cy="22.275" r="5.4" transform="rotate(-90 7.425 22.275)"/>
                    <circle cx="38.475" cy="22.275" r="14.85" transform="rotate(-90 38.475 22.275)"/>
                    <path stroke-linecap="square" d="M23.625 14.175L23.625 30.375" transform="rotate(-90 23.625 22.275)"/>
                    <path stroke-linecap="round" stroke-linejoin="round" d="M32.4 9.45L49.95 9.45" transform="rotate(-90 41.175 9.45)"/>
                </g>
                <g stroke="#750E68" stroke-width="4.05" transform="rotate(90 58.316 406.547)">
                    <rect width="8.1" height="21.6" x="69.525" y="11.475" rx="4.05" transform="rotate(90 73.575 22.275)"/>
                    <rect width="8.1" height="12.15" x="33.75" y="16.2" rx="4.05" transform="rotate(90 37.8 22.275)"/>
                    <path stroke-linecap="square" d="M45.9 22.95L62.775 22.275" transform="rotate(-180 54 22.275)"/>
                    <circle cx="7.425" cy="22.275" r="5.4" transform="rotate(-90 7.425 22.275)"/>
                    <circle cx="38.475" cy="22.275" r="14.85" transform="rotate(-90 38.475 22.275)"/>
                    <path stroke-linecap="square" d="M23.625 14.175L23.625 30.375" transform="rotate(-90 23.625 22.275)"/>
                    <path stroke-linecap="square" d="M32.4 9.45L49.95 9.45" transform="rotate(-90 41.175 9.45)"/>
                </g>
                <path stroke="#750E68" stroke-linecap="square" stroke-width="4" d="M1367 2L1 2M1367 222L1 222M177 164L155 221M200 165L216 221"/>
                <use stroke="#750E68" stroke-linecap="round" stroke-linejoin="round" stroke-width="4.05" transform="rotate(17 136.154 426.632)" xlink:href="#8c18c95qvm"/>
                <use stroke="#750E68" stroke-linecap="round" stroke-linejoin="round" stroke-width="4.05" xlink:href="#qzpvl0c94n"/>
                <g stroke="#750E68" stroke-width="4.05">
                    <g>
                        <path d="M56.659 2.025c1.88 4.35 4.943 8.07 8.784 10.752 4.11 2.87 9.11 4.554 14.503 4.554 4.18 0 8.122-1.011 11.598-2.802h0l5.75 10.606c-8.313 6.684-13.634 16.94-13.634 28.44 0 10.368 4.326 19.727 11.272 26.366h0L85.686 91.78c-4.039-1.99-8.584-3.11-13.391-3.11-7.087 0-13.607 2.432-18.771 6.506h0-6.07c-5.165-4.074-11.684-6.506-18.771-6.506-5.148 0-9.996 1.283-14.243 3.546h0L5.035 80.174c7.09-6.653 11.518-16.109 11.518-26.6 0-11.654-5.466-22.033-13.974-28.708h0l5.44-10.683c3.631 2.006 7.806 3.148 12.247 3.148 5.393 0 10.393-1.684 14.503-4.554 3.841-2.683 6.904-6.402 8.785-10.752h0z" transform="translate(1124 333)"/>
                        <path stroke-linecap="square" d="M29.637 38.709L27 31.05" transform="translate(1124 333)"/>
                        <path stroke-linecap="square" d="M33.687 57.044L32.699 54.175 31.05 49.385" transform="translate(1124 333) rotate(19 32.369 53.215)"/>
                        <path stroke-linecap="square" d="M71.55 38.709L68.913 31.05" transform="translate(1124 333) matrix(-1 0 0 1 140.463 0)"/>
                        <path stroke-linecap="square" d="M67.5 57.044L66.512 54.175 64.863 49.385" transform="translate(1124 333) scale(-1 1) rotate(19 0 -342.27)"/>
                    </g>
                    <path stroke-linecap="square" d="M28.287 75.159L27.299 72.29 25.65 67.5" transform="translate(1124 333) rotate(46 26.969 71.33)"/>
                    <path stroke-linecap="square" d="M72.9 75.159L71.912 72.29 70.263 67.5" transform="translate(1124 333) scale(-1 1) rotate(46 0 -97.306)"/>
                </g>
                <g stroke="#750E68" stroke-width="4.05">
                    <path stroke-linecap="round" stroke-linejoin="round" d="M35 150c0-2.21 1.823-4 4.071-4 2.249 0 4.072 1.79 4.072 4s1.823 4 4.071 4c2.249 0 4.072-1.79 4.072-4s1.823-4 4.071-4c2.249 0 4.072 1.79 4.072 4s1.822 4 4.071 4c2.249 0 4.071-1.79 4.071-4s1.823-4 4.072-4c2.248 0 4.071 1.79 4.071 4s1.823 4 4.072 4c2.248 0 4.071-1.79 4.071-4s1.823-4 4.072-4c2.248 0 4.071 1.79 4.071 4M35 136c0-2.21 1.823-4 4.071-4 2.249 0 4.072 1.79 4.072 4s1.823 4 4.071 4c2.249 0 4.072-1.79 4.072-4s1.823-4 4.071-4c2.249 0 4.072 1.79 4.072 4s1.822 4 4.071 4c2.249 0 4.071-1.79 4.071-4s1.823-4 4.072-4c2.248 0 4.071 1.79 4.071 4s1.823 4 4.072 4c2.248 0 4.071-1.79 4.071-4s1.823-4 4.072-4c2.248 0 4.071 1.79 4.071 4M35 163c0-2.21 1.823-4 4.071-4 2.249 0 4.072 1.79 4.072 4s1.823 4 4.071 4c2.249 0 4.072-1.79 4.072-4s1.823-4 4.071-4c2.249 0 4.072 1.79 4.072 4s1.822 4 4.071 4c2.249 0 4.071-1.79 4.071-4s1.823-4 4.072-4c2.248 0 4.071 1.79 4.071 4s1.823 4 4.072 4c2.248 0 4.071-1.79 4.071-4s1.823-4 4.072-4c2.248 0 4.071 1.79 4.071 4" transform="translate(1236 260)"/>
                    <path d="M124.5 43L88 42.964V23.382C88 10.468 76.569 0 62.468 0c-14.1 0-25.532 10.468-25.532 23.382v19.582L.5 43" transform="translate(1236 260)"/>
                    <path d="M68 67.591L86 61 86 104.409 68 111z" transform="translate(1236 260) matrix(-1 0 0 1 154 0)"/>
                    <path d="M39 67.707L57 60 57 104.427 39.222 111z" transform="translate(1236 260)"/>
                    <path stroke-linecap="round" stroke-linejoin="round" d="M77.5 65.226L77.5 106.774" transform="translate(1236 260)"/>
                    <path stroke-linecap="round" stroke-linejoin="round" d="M48.5 63.224L48.5 106.776" transform="translate(1236 260) matrix(-1 0 0 1 97 0)"/>
                    <path stroke-linecap="round" stroke-linejoin="round" d="M110.772 76L69.114 60.075 68 59.402 68 52 111 67.925zM15.188 77L56.36 60.314 57 61.229 57 53 15 69.686zM68 2l16.072 55.274m3.076 10.045L109 143" transform="translate(1236 260)"/>
                    <path stroke-linecap="round" stroke-linejoin="round" d="M15 2l15.995 55.86m3.379 10.586L56 143" transform="translate(1236 260) matrix(-1 0 0 1 71 0)"/>
                    <path stroke-linecap="round" stroke-linejoin="round" d="M22.224 93.225L38.776 164.775" transform="translate(1236 260) matrix(-1 0 0 1 61 0)"/>
                    <path stroke-linecap="round" stroke-linejoin="round" d="M86.226 92.226L104.774 165.774" transform="translate(1236 260)"/>
                    <path stroke-linecap="round" stroke-linejoin="round" d="M48 2L58 55" transform="translate(1236 260) matrix(-1 0 0 1 106 0)"/>
                    <path stroke-linecap="round" stroke-linejoin="round" d="M76 2L65 55" transform="translate(1236 260) matrix(-1 0 0 1 141 0)"/>
                </g>
                <path stroke="#750E68" stroke-linecap="square" stroke-width="4" d="M1236 241L1367 241M1236 223L1236 441M1111 223L1111 441"/>
                <path stroke="#750E68" stroke-linecap="round" stroke-linejoin="round" stroke-width="4" d="M786 384L764 441M809 385L825 441"/>
                <g stroke="#750E68" stroke-width="4">
                    <path stroke-linecap="round" stroke-linejoin="round" d="M70 27.86C67.161 22.013 61.302 18 54.534 18 47.712 18 41.812 22.078 39 28" transform="translate(614 393) rotate(-180 54.5 23)"/>
                    <path stroke-linecap="square" d="M34 15V4.5C34 2.015 35.064 0 36.377 0h37.246C74.936 0 76 2.015 76 4.5V15" transform="translate(614 393)"/>
                    <path stroke-linecap="round" stroke-linejoin="round" d="M0 18L106 18" transform="translate(614 393)"/>
                </g>
                <g>
                    <path d="M0 0H109.824V109.824H0z" transform="translate(256 117)"/>
                    <g stroke="#750E68" stroke-width="4.29">
                        <path stroke-linecap="round" stroke-linejoin="round" d="M4.396 31.868c-.97 10.669 4.715 16.389 17.054 17.16" transform="translate(256 117) translate(15.73 15.73) rotate(-45 12.87 40.448)"/>
                        <path stroke-linecap="round" stroke-linejoin="round" d="M4.396 55.892c-.97 10.669 4.715 16.389 17.054 17.16" transform="translate(256 117) translate(15.73 15.73) rotate(-45 12.87 64.472)"/>
                        <path stroke-linecap="round" stroke-linejoin="round" d="M28.42 31.868c-.97 10.669 4.715 16.389 17.054 17.16" transform="translate(256 117) translate(15.73 15.73) rotate(-45 36.894 40.448)"/>
                        <path stroke-linecap="round" stroke-linejoin="round" d="M28.42 55.892c-.97 10.669 4.715 16.389 17.054 17.16" transform="translate(256 117) translate(15.73 15.73) rotate(-45 36.894 64.472)"/>
                        <path stroke-linecap="round" stroke-linejoin="round" d="M52.444 31.868c-.97 10.669 4.715 16.389 17.054 17.16" transform="translate(256 117) translate(15.73 15.73) rotate(-45 60.918 40.448)"/>
                        <path stroke-linecap="round" stroke-linejoin="round" d="M52.444 55.892c-.97 10.669 4.715 16.389 17.054 17.16" transform="translate(256 117) translate(15.73 15.73) rotate(-45 60.918 64.472)"/>
                        <path stroke-linecap="round" stroke-linejoin="round" d="M79.672 45.045l-.307-33.891C79.365 4.994 73.987 0 67.353 0S55.341 4.994 55.341 11.154" transform="translate(256 117) translate(15.73 15.73) matrix(-1 0 0 1 135.013 0)"/>
                        <path stroke-linecap="round" stroke-linejoin="round" d="M38.366 45.045l.122-33.891C38.488 4.994 33.11 0 26.476 0S14.464 4.994 14.464 11.154" transform="translate(256 117) translate(15.73 15.73) matrix(-1 0 0 1 52.952 0)"/>
                        <path stroke-linecap="square" d="M16.18 22.308L53.932 22.308" transform="translate(256 117) translate(15.73 15.73)"/>
                    </g>
                </g>
                <g>
                    <path d="M0 0H99.792V99.792H0z" transform="translate(388 113)"/>
                    <g transform="translate(388 113) translate(12.96 7.776)">
                        <g transform="rotate(18 -50.314 44.694)">
                            <circle cx="11.88" cy="11.264" r="8.424" stroke="#750E68" stroke-width="3.888"/>
                            <path stroke="#750E68" stroke-linecap="round" stroke-width="3.888" d="M2.236 5.828c2.661 1.118 5.228.051 7.7-3.199M.124 9.46c1.9 1.18 3.563-.136 4.99-3.945M.124 13.348c1.211 1.008 2.455-.412 3.733-4.258M4.72 15.71C5.244 8.14 8.6 4.077 14.785 3.526M10.149.154c-.416 1.399.376 2.306 2.378 2.72M13.636.13c-2.015.767-2.717 2.142-2.109 4.123M15.818 2.21c.59 2.073 1.898 2.893 3.925 2.46M9.648 4.47c-2.122.38-3.433-.437-3.932-2.45"/>
                            <circle cx="2.16" cy="17.096" r="1.944" fill="#750E68"/>
                        </g>
                        <circle cx="53.136" cy="18.792" r="9.72" stroke="#750E68" stroke-width="3.888"/>
                        <circle cx="61.56" cy="15.552" r="3.24" fill="#750E68"/>
                        <circle cx="64.152" cy="16.848" r="3.24" fill="#750E68"/>
                        <circle cx="64.152" cy="22.032" r="3.24" fill="#750E68"/>
                        <g transform="translate(33.696 51.192)">
                            <ellipse cx="1.944" cy="9.72" fill="#750E68" rx="1.944" ry="2.592"/>
                            <ellipse cx="1.944" cy="25.272" fill="#750E68" rx="1.944" ry="2.592"/>
                            <path stroke="#750E68" stroke-width="3.888" d="M8.699.648h1.942c2.071 0 3.75 1.68 3.75 3.75 0 .334-.044.666-.132.988l-.549 2.012h0v20.25l.148.65c.476 2.094-.835 4.177-2.93 4.653-.282.065-.571.097-.861.097H8.219c-1.815 0-3.389-1.256-3.791-3.026l-.54-2.374h0V7.398l1.06-3.885C5.41 1.82 6.946.648 8.7.648z"/>
                        </g>
                        <path stroke="#750E68" stroke-width="3.888" d="M21.773 45.36c2.04 0 3.887.827 5.223 2.164 1.337 1.336 2.164 3.183 2.164 5.223h0v9.461H8.424v-9.46c0-2.04.827-3.888 2.164-5.224 1.336-1.337 3.183-2.164 5.223-2.164h5.962zM1.944 50.674c0-.752.305-1.432.797-1.925.493-.492 1.173-.797 1.925-.797h3.758v14.256H4.666c-.752 0-1.432-.305-1.925-.797-.492-.493-.797-1.173-.797-1.925h0zM17.107 81.648c-2.04 0-3.887-.827-5.223-2.164-1.337-1.336-2.164-3.183-2.164-5.223h0V62.208h18.144v12.053c0 2.04-.827 3.887-2.164 5.223-1.336 1.337-3.183 2.164-5.223 2.164h0z"/>
                        <path stroke="#750E68" stroke-linecap="round" stroke-linejoin="round" stroke-width="3.888" d="M40.31 36.126l2.287 1.92c6.327 5.309 15.826 5.526 20.408.065"/>
                        <path stroke="#750E68" stroke-width="3.888" d="M59.859 33.696c1.74 0 3.362.607 4.64 1.64 1.279 1.032 2.214 2.489 2.581 4.19h0l4.938 22.896-22.073-3.604-2.641-.294v-3.339c0-.976-.296-1.9-.816-2.673-.253-.376-.559-.715-.91-1.007h0l.09-2.08.84-9.026c.177-1.9 1.062-3.575 2.38-4.776 1.318-1.2 3.068-1.927 4.975-1.927h0z"/>
                        <path stroke="#750E68" stroke-width="3.888" d="M54.691 81.648c-2.04 0-3.887-.827-5.223-2.164-1.337-1.336-2.164-3.183-2.164-5.223h0V58.045l18.144 3.202v13.014c0 2.04-.827 3.887-2.164 5.223-1.336 1.337-3.183 2.164-5.223 2.164h0z"/>
                        <path stroke="#750E68" stroke-linecap="round" stroke-linejoin="round" stroke-width="3.888" d="M16.848 45.36h13.608c5.52 0 7.181-2.808 4.984-8.424"/>
                        <g>
                            <path stroke="#750E68" stroke-linecap="round" stroke-linejoin="round" stroke-width="3.888" d="M0 14.256c4.132-2.16 8.049-3.24 11.75-3.24 3.702 0 7.129 1.728 10.282 5.184" transform="translate(40.176)"/>
                            <path fill="#750E68" d="M14.498.648c3.646.648 4.396 1.786 6.366 3.51.477.417 1.58 2.187 3.308 5.31.592 1.07.647 2.356.147 3.472l-2.04 4.556c-5.659-4.261-9.25-6.392-10.774-6.392-1.523 0-4.062.493-7.617 1.478l1.735-8.036c.26-1.2 1.07-2.207 2.186-2.717C10.3.692 12.529.3 14.498.648zm-.707 4.212c-.485 0-1.216.104-2.196.312-1.42.301-2.553 1.368-2.94 2.767l-.523 1.893c1.896-.41 3.25-.615 4.063-.615.812 0 2.727.887 5.745 2.663l.372-.648c.962-1.68.472-3.817-1.126-4.91l-.211-.143c-.99-.67-2.047-1.319-3.184-1.319z" transform="translate(40.176)"/>
                        </g>
                        <path stroke="#750E68" stroke-linecap="square" stroke-width="3.888" d="M18.792 46.008c.553 3.104-.095 5.696-1.944 7.776-1.85 2.08-4.441 3.16-7.776 3.24"/>
                    </g>
                </g>
                <g stroke="#750E68" stroke-width="4">
                    <path d="M9.004 20.725C9.122 23.935 11.762 26.5 15 26.5c3.314 0 6-2.686 6-6h9l.004.225c.118 3.21 2.758 5.775 5.996 5.775 3.314 0 6-2.686 6-6h9l.004.225c.118 3.21 2.758 5.775 5.996 5.775 3.314 0 6-2.686 6-6h8l-20 41H21l-20-41h8z" transform="translate(757.742 246) rotate(-120 36 41)"/>
                    <path d="M54.775 14c0 8.284 6.716 15 15 15 8.284 0 15-6.716 15-15h-30z" transform="translate(757.742 246) rotate(-120 69.775 21.5)"/>
                    <path d="M43.517 22.5H73.517V33.5H43.517z" transform="translate(757.742 246) rotate(-120 58.517 28)"/>
                    <path stroke-linecap="round" stroke-linejoin="round" d="M38.165 27.25L38.165 52.25" transform="translate(757.742 246) rotate(-120 38.165 39.75)"/>
                    <path stroke-linecap="round" stroke-linejoin="round" d="M37.098 15.742L27.598 40.242" transform="translate(757.742 246) rotate(-120 32.098 28.242)"/>
                    <path stroke-linecap="round" stroke-linejoin="round" d="M58.062 49.321L33.242 52.311" transform="translate(757.742 246) scale(1 -1) rotate(60 133.88 0)"/>
                </g>
                <g transform="translate(1026 118)">
                    <g>
                        <path fill="#750E68" d="M11.617 0c3.446 0 6.24 2.794 6.24 6.24 0 .826-.16 1.614-.452 2.335-1.273-1.441-3.047-2.335-5.008-2.335-2.474 0-4.649 1.421-5.899 3.57-.707-1.011-1.121-2.242-1.121-3.57C5.377 2.794 8.17 0 11.617 0z" transform="translate(40 6)"/>
                        <g stroke="#750E68" stroke-width="3.9" transform="translate(40 6) translate(0 3.569)">
                            <circle cx="12.397" cy="11.7" r="9.75"/>
                            <path stroke-linecap="round" stroke-linejoin="round" d="M10.695 2.632C8.842 7.35 4.08 9.952.059 8.443M12.313 2.632C9.535 9.018 4.022 13.092 0 11.729"/>
                        </g>
                    </g>
                    <g>
                        <g transform="translate(16)">
                            <path fill="#750E68" d="M13.26 0c7.323 0 13.26 5.937 13.26 13.26 0 3.32-1.22 6.356-3.237 8.682.077-.542.117-1.097.117-1.662 0-6.03-4.54-10.92-10.14-10.92-5.6 0-10.14 4.89-10.14 10.92 0 .565.04 1.12.117 1.662C1.22 19.616 0 16.58 0 13.26 0 5.937 5.937 0 13.26 0z"/>
                            <circle cx="13.26" cy="17.94" r="9.75" stroke="#750E68" stroke-width="3.9"/>
                        </g>
                        <path stroke="#750E68" stroke-linecap="round" stroke-linejoin="round" stroke-width="3.9" d="M13.306 6.676c1.48 3.854 7.116 7.295 9.18 6.502M13.126 6.676c-1.48 3.854-7.116 7.295-9.18 6.502" transform="translate(16)"/>
                    </g>
                    <path stroke="#750E68" stroke-width="3.9" d="M55.673 35.95c1.819 0 3.503.66 4.805 1.769 1.301 1.108 2.221 2.666 2.51 4.46h0L65.71 59.05H41.092l1.14-16.21c.136-1.94 1.012-3.663 2.339-4.9 1.327-1.238 3.107-1.99 5.053-1.99h0zM51.36 83.05c-2.046 0-3.899-.83-5.24-2.17-1.34-1.341-2.17-3.194-2.17-5.24h0V60.95h17.1v14.69c0 2.046-.83 3.899-2.17 5.24-1.341 1.34-3.194 2.17-5.24 2.17h0zM33.471 33.95c2.035 0 3.88.82 5.22 2.15 1.34 1.33 2.174 3.167 2.19 5.202h0l.154 19.748H13.95V41.36c0-2.046.83-3.899 2.17-5.24 1.341-1.34 3.194-2.17 5.24-2.17h0z"/>
                    <path stroke="#750E68" stroke-width="3.9" d="M26.36 83.05c-2.046 0-3.899-.83-5.24-2.17-1.34-1.341-2.17-3.194-2.17-5.24h0V60.95h17.1v14.69c0 2.046-.83 3.899-2.17 5.24-1.341 1.34-3.194 2.17-5.24 2.17h0-2.28z"/>
                    <rect width="13" height="20" y="40" stroke="#750E68" stroke-width="3.9" rx="4.68"/>
                    <path stroke="#750E68" stroke-width="3.9" d="M4.68 40h3.64c2.585 0 4.68 2.095 4.68 4.68V49h0H0v-4.32C0 42.095 2.095 40 4.68 40z"/>
                    <circle cx="6.5" cy="29.5" r="4.5" stroke="#750E68" stroke-width="3.9"/>
                    <path stroke="#750E68" stroke-linecap="round" stroke-width="3.9" d="M12.652 24.626c-2.665-.367-4.765-1.789-6.301-4.266"/>
                    <g stroke="#750E68" stroke-width="3.9" transform="translate(62 21)">
                        <circle cx="11.631" cy="12.085" r="8.19"/>
                        <path stroke-linecap="round" stroke-linejoin="round" d="M23.4 3.12c-5.17 0-9.36 4.54-9.36 10.14" transform="rotate(-99 18.72 8.19)"/>
                        <path stroke-linecap="round" stroke-linejoin="round" d="M10.92 1.56c-3.639 0-6.792 2.25-8.341 5.534" transform="rotate(172 6.24 6.63)"/>
                    </g>
                    <path stroke="#750E68" stroke-width="3.9" d="M74.12 46.95c1.802 0 3.474.649 4.772 1.741 1.298 1.093 2.222 2.63 2.53 4.406h0l2.585 14.953H62.985v-21.1zM70.36 83.05c-2.046 0-3.899-.83-5.24-2.17-1.34-1.341-2.17-3.194-2.17-5.24h0v-6.69h17.1v6.69c0 2.046-.83 3.899-2.17 5.24-1.341 1.34-3.194 2.17-5.24 2.17h0-2.28z"/>
                    <path stroke="#750E68" stroke-linecap="round" stroke-linejoin="round" stroke-width="3.9" d="M66 62h1.702C72.406 62 77 55.633 77 49"/>
                    <path stroke="#750E68" stroke-linecap="square" stroke-width="3.9" d="M14.927 49H18c8.497 0 16.127-5.833 16.127-12.833"/>
                </g>
                <path d="M486 242H593.52V349.52H486z"/>
                <path stroke="#750E68" stroke-linecap="round" stroke-linejoin="round" stroke-width="4" d="M516.8 304.3L501.4 304.3M585.4 304.3L570 304.3"/>
                <circle cx="561.852" cy="331.908" r="9.828" stroke="#750E68" stroke-width="4"/>
                <circle cx="521.868" cy="331.908" r="9.828" stroke="#750E68" stroke-width="4"/>
                <path stroke="#750E68" stroke-linecap="round" stroke-linejoin="round" stroke-width="4" d="M521.28 331.32L539.76 331.32 554.04 314.52 533.88 314.52zM532.2 305.28L538.92 330.48M549.84 304.44L558.24 304.44M528 304.44L536.4 304.44M550.68 305.28L562.44 332.16M580.36 288.9c2.91-.134 4.31-3.074 4.2-5.46v-10.904L577 253.2h-74.76v35.7"/>
                <path stroke="#750E68" stroke-linecap="square" stroke-width="4" d="M562.72 271.86L562.72 254.511"/>
                <path stroke="#750E68" stroke-linecap="round" stroke-linejoin="round" stroke-width="4" d="M554.32 281.76L535.84 281.76M505.6 290.16L502.24 290.16M582.88 273.36L503.92 273.36M559.36 290.16L552.64 290.16M502.24 273.36L502.24 254.64"/>
                <path stroke="#750E68" stroke-linecap="square" stroke-width="4" d="M542.56 271.86L542.56 254.511M522.4 271.86L522.4 254.511"/>
                <circle cx="567.76" cy="288.48" r="6.72" stroke="#750E68" stroke-width="4"/>
                <circle cx="522.4" cy="288.48" r="6.72" stroke="#750E68" stroke-width="4"/>
                <path d="M486 242H593.8V349.8H486z"/>
                <g stroke="#750E68" stroke-width="4" transform="translate(267 364)">
                    <rect width="49" height="20" x="2" y="15" stroke-linecap="round" rx="6.35" transform="rotate(90 26.5 25)"/>
                    <rect width="49" height="20" x="51" y="15" stroke-linecap="round" rx="6.35" transform="rotate(90 75.5 25)"/>
                    <rect width="25" height="10" x="-1" y="20" stroke-linecap="round" rx="5" transform="rotate(90 11.5 25)"/>
                    <rect width="25" height="10" x="79" y="19" stroke-linecap="round" rx="5" transform="rotate(90 91.5 24)"/>
                    <path stroke-linecap="square" d="M27.5 1L27.5 18M74.5 1L74.5 18M26.5 32L26.5 49M75.5 32L75.5 49M38 28.5L63 28.5M38 22.5L63 22.5"/>
                    <path stroke-linecap="square" d="M97 29L97 23 103 23 103 28.571" transform="rotate(90 100 26)"/>
                    <path stroke-linecap="square" d="M0 29L0 23 6 23 6 28.571" transform="matrix(0 1 1 0 -23 23)"/>
                </g>
                <g stroke="#750E68" stroke-width="4" transform="translate(885 338.6)">
                    <path stroke-linecap="round" d="M36.06 60.085l24.108 7.123c5.323 1.573 8.976 6.461 8.976 12.012 0 5.17-4.19 9.36-9.36 9.36h-42.12c-9.477 0-17.16-7.683-17.16-17.16v-2.068c0-8.224 6.667-14.89 14.891-14.89 1.257 0 2.509.158 3.725.473l4.456 1.151h0"/>
                    <path stroke-linecap="round" stroke-linejoin="round" d="M21.456 25.417l-7.05 7.378c-2.767 2.896-2.891 7.418-.287 10.46.214.25.439.503.674.76 2.765 3.009 7.09 6.538 12.974 10.587l-7.822 8.405"/>
                    <path stroke-linecap="round" stroke-linejoin="round" d="M32.84 37.346l-2.147 2.246c-1.172 1.227-1.15 3.165.052 4.364l5.24 5.232c2.416 2.41 2.446 6.314.07 8.762L25.816 68.495h0M52.298 64.215L60.487 33.861 49.89 30.56 41.697 39.813"/>
                    <path d="M13.099 54.514L13.099 41.929"/>
                    <path stroke-linecap="round" d="M0 88.58L4.601 84.469"/>
                    <path stroke-linecap="round" d="M66.287 88.58L68.561 86.548" transform="matrix(-1 0 0 1 134.848 0)"/>
                    <circle cx="53.544" cy="10.58" r="7.8"/>
                    <circle cx="17.664" cy="71.42" r="7.8"/>
                    <path d="M21.456 25.417L32.84 37.346l9.52-10.637c1.15-1.284 1.04-3.256-.244-4.406l-.1-.086-6.702-5.506c-1.182-.97-2.893-.942-4.042.068l-9.816 8.638h0z"/>
                    <path stroke-linecap="round" d="M33.264 17.134c-1.014 10.4 4.929 15.976 17.828 16.727"/>
                    <path stroke-linecap="round" d="M58.328 2c-.441 4.85 2.143 7.45 7.752 7.8" transform="rotate(-45 62.18 5.9)"/>
                </g>
            </g>
        </g>
    </g>
</svg>
